<mxfile host="Electron" modified="2023-12-11T21:03:36.460Z" agent="Mozilla/5.0 (Macintosh; Intel Mac OS X 10_15_7) AppleWebKit/537.36 (KHTML, like Gecko) draw.io/22.1.2 Chrome/114.0.5735.289 Electron/25.9.4 Safari/537.36" etag="rbM0k8c_4fIP985wCX5L" version="22.1.2" type="device">
  <diagram name="Page-1" id="kPa2MPDhuV78jP6ewXFb">
    <mxGraphModel dx="-152" dy="484" grid="1" gridSize="10" guides="1" tooltips="1" connect="1" arrows="1" fold="1" page="1" pageScale="1" pageWidth="827" pageHeight="1169" math="0" shadow="0">
      <root>
        <mxCell id="0" />
        <mxCell id="1" parent="0" />
        <mxCell id="d9xbv50uQdHHfrBe012P-1" value="" style="shape=image;verticalLabelPosition=bottom;labelBackgroundColor=default;verticalAlign=top;aspect=fixed;imageAspect=0;image=data:image/svg+xml,PHN2ZyB4bWxuczp4bGluaz0iaHR0cDovL3d3dy53My5vcmcvMTk5OS94bGluayIgeG1sbnM9Imh0dHA6Ly93d3cudzMub3JnLzIwMDAvc3ZnIiB2ZXJzaW9uPSIxLjEiIHZpZXdCb3g9IjY1IC00MDUgMjMyMCAxMDYwIiBoZWlnaHQ9IjEwNjAiIHdpZHRoPSIyMzIwIj48ZGVmcz48cGF0dGVybiBwYXR0ZXJuVW5pdHM9InVzZXJTcGFjZU9uVXNlIiBoZWlnaHQ9IjEwIiB3aWR0aD0iMTAiIGlkPSJkanMtZ3JpZC1wYXR0ZXJuLTk5MjQzNiI+PGNpcmNsZSBzdHlsZT0iZmlsbDogcmdiKDIwNCwgMjA0LCAyMDQpOyIgcj0iMC41IiBjeT0iMC41IiBjeD0iMC41Ii8+PC9wYXR0ZXJuPjxtYXJrZXIgb3JpZW50PSJhdXRvIiBtYXJrZXJIZWlnaHQ9IjEwIiBtYXJrZXJXaWR0aD0iMTAiIHJlZlk9IjEwIiByZWZYPSIxMSIgdmlld0JveD0iMCAwIDIwIDIwIiBpZD0ic2VxdWVuY2VmbG93LWVuZC13aGl0ZS1oc2xfMjI1XzEwXzE1Xy0yb21ncml3bTAxbmFyN20weW8yaWJvcTBuIj48cGF0aCBzdHlsZT0ic3Ryb2tlLWxpbmVjYXA6IHJvdW5kOyBzdHJva2UtbGluZWpvaW46IHJvdW5kOyBzdHJva2U6IHJnYigzNCwgMzYsIDQyKTsgc3Ryb2tlLXdpZHRoOiAxcHg7IGZpbGw6IHJnYigzNCwgMzYsIDQyKTsiIGQ9Ik0gMSA1IEwgMTEgMTAgTCAxIDE1IFoiLz48L21hcmtlcj48bWFya2VyIG9yaWVudD0iYXV0byIgbWFya2VySGVpZ2h0PSIxMCIgbWFya2VyV2lkdGg9IjEwIiByZWZZPSIxMCIgcmVmWD0iMTEiIHZpZXdCb3g9IjAgMCAyMCAyMCIgaWQ9InNlcXVlbmNlZmxvdy1lbmQtd2hpdGUtdmFyX2VsZW1lbnRfZHJhZ2dlcl9jb2xvcl8tMm9tZ3Jpd20wMW5hcjdtMHlvMmlib3EwbiI+PHBhdGggc3R5bGU9InN0cm9rZS1saW5lY2FwOiByb3VuZDsgc3Ryb2tlLWxpbmVqb2luOiByb3VuZDsgc3Ryb2tlOiB2YXIoLS1lbGVtZW50LWRyYWdnZXItY29sb3IpOyBzdHJva2Utd2lkdGg6IDFweDsgZmlsbDogdmFyKC0tZWxlbWVudC1kcmFnZ2VyLWNvbG9yKTsiIGQ9Ik0gMSA1IEwgMTEgMTAgTCAxIDE1IFoiLz48L21hcmtlcj48bWFya2VyIG9yaWVudD0iYXV0byIgbWFya2VySGVpZ2h0PSIyMCIgbWFya2VyV2lkdGg9IjIwIiByZWZZPSI1IiByZWZYPSI4LjUiIHZpZXdCb3g9IjAgMCAyMCAyMCIgaWQ9Im1lc3NhZ2VmbG93LWVuZC13aGl0ZS1oc2xfMjI1XzEwXzE1Xy0yb21ncml3bTAxbmFyN20weW8yaWJvcTBuIj48cGF0aCBzdHlsZT0ic3Ryb2tlLWxpbmVjYXA6IHJvdW5kOyBzdHJva2UtbGluZWpvaW46IHJvdW5kOyBzdHJva2U6IHJnYigzNCwgMzYsIDQyKTsgc3Ryb2tlLXdpZHRoOiAxcHg7IGZpbGw6IHdoaXRlOyBzdHJva2UtZGFzaGFycmF5OiAxMDAwMCwgMTsiIGQ9Im0gMSA1IGwgMCAtMyBsIDcgMyBsIC03IDMgeiIvPjwvbWFya2VyPjxtYXJrZXIgb3JpZW50PSJhdXRvIiBtYXJrZXJIZWlnaHQ9IjIwIiBtYXJrZXJXaWR0aD0iMjAiIHJlZlk9IjYiIHJlZlg9IjYiIHZpZXdCb3g9IjAgMCAyMCAyMCIgaWQ9Im1lc3NhZ2VmbG93LXN0YXJ0LXdoaXRlLWhzbF8yMjVfMTBfMTVfLTJvbWdyaXdtMDFuYXI3bTB5bzJpYm9xMG4iPjxjaXJjbGUgc3R5bGU9InN0cm9rZS1saW5lY2FwOiByb3VuZDsgc3Ryb2tlLWxpbmVqb2luOiByb3VuZDsgc3Ryb2tlOiByZ2IoMzQsIDM2LCA0Mik7IHN0cm9rZS13aWR0aDogMXB4OyBmaWxsOiB3aGl0ZTsgc3Ryb2tlLWRhc2hhcnJheTogMTAwMDAsIDE7IiByPSIzLjUiIGN5PSI2IiBjeD0iNiIvPjwvbWFya2VyPjxtYXJrZXIgb3JpZW50PSJhdXRvIiBtYXJrZXJIZWlnaHQ9IjIwIiBtYXJrZXJXaWR0aD0iMjAiIHJlZlk9IjUiIHJlZlg9IjguNSIgdmlld0JveD0iMCAwIDIwIDIwIiBpZD0ibWVzc2FnZWZsb3ctZW5kLXdoaXRlLXZhcl9lbGVtZW50X2RyYWdnZXJfY29sb3JfLTJvbWdyaXdtMDFuYXI3bTB5bzJpYm9xMG4iPjxwYXRoIHN0eWxlPSJzdHJva2UtbGluZWNhcDogcm91bmQ7IHN0cm9rZS1saW5lam9pbjogcm91bmQ7IHN0cm9rZTogdmFyKC0tZWxlbWVudC1kcmFnZ2VyLWNvbG9yKTsgc3Ryb2tlLXdpZHRoOiAxcHg7IGZpbGw6IHdoaXRlOyBzdHJva2UtZGFzaGFycmF5OiAxMDAwMCwgMTsiIGQ9Im0gMSA1IGwgMCAtMyBsIDcgMyBsIC03IDMgeiIvPjwvbWFya2VyPjxtYXJrZXIgb3JpZW50PSJhdXRvIiBtYXJrZXJIZWlnaHQ9IjIwIiBtYXJrZXJXaWR0aD0iMjAiIHJlZlk9IjYiIHJlZlg9IjYiIHZpZXdCb3g9IjAgMCAyMCAyMCIgaWQ9Im1lc3NhZ2VmbG93LXN0YXJ0LXdoaXRlLXZhcl9lbGVtZW50X2RyYWdnZXJfY29sb3JfLTJvbWdyaXdtMDFuYXI3bTB5bzJpYm9xMG4iPjxjaXJjbGUgc3R5bGU9InN0cm9rZS1saW5lY2FwOiByb3VuZDsgc3Ryb2tlLWxpbmVqb2luOiByb3VuZDsgc3Ryb2tlOiB2YXIoLS1lbGVtZW50LWRyYWdnZXItY29sb3IpOyBzdHJva2Utd2lkdGg6IDFweDsgZmlsbDogd2hpdGU7IHN0cm9rZS1kYXNoYXJyYXk6IDEwMDAwLCAxOyIgcj0iMy41IiBjeT0iNiIgY3g9IjYiLz48L21hcmtlcj48L2RlZnM+PGcgY2xhc3M9ImRqcy1ncm91cCI+PGcgdHJhbnNmb3JtPSJtYXRyaXgoMSAwIDAgMSA3MCAtMzQwKSIgc3R5bGU9ImRpc3BsYXk6IGJsb2NrOyIgZGF0YS1lbGVtZW50LWlkPSJQYXJ0aWNpcGFudF8xd3N2MDhpIiBjbGFzcz0iZGpzLWVsZW1lbnQgZGpzLXNoYXBlIj48ZyBjbGFzcz0iZGpzLXZpc3VhbCI+PHJlY3Qgc3R5bGU9InN0cm9rZS1saW5lY2FwOiByb3VuZDsgc3Ryb2tlLWxpbmVqb2luOiByb3VuZDsgc3Ryb2tlOiByZ2IoMzQsIDM2LCA0Mik7IHN0cm9rZS13aWR0aDogMS41cHg7IGZpbGw6IHdoaXRlOyBmaWxsLW9wYWNpdHk6IDAuOTU7IiByeT0iMCIgcng9IjAiIGhlaWdodD0iNTQ1IiB3aWR0aD0iMjMxMCIgeT0iMCIgeD0iMCIvPjxwYXRoIGQ9Ik0zMCwwTDMwLDU0NSIgc3R5bGU9ImZpbGw6IG5vbmU7IHN0cm9rZS1saW5lY2FwOiByb3VuZDsgc3Ryb2tlLWxpbmVqb2luOiByb3VuZDsgc3Ryb2tlOiByZ2IoMzQsIDM2LCA0Mik7IHN0cm9rZS13aWR0aDogMS41cHg7Ii8+PHRleHQgdHJhbnNmb3JtPSJtYXRyaXgoLTEuODM2OTdlLTE2IC0xIDEgLTEuODM2OTdlLTE2IDAgNTQ1KSIgc3R5bGU9ImZvbnQtZmFtaWx5OiBBcmlhbCwgc2Fucy1zZXJpZjsgZm9udC1zaXplOiAxMnB4OyBmb250LXdlaWdodDogbm9ybWFsOyBmaWxsOiByZ2IoMzQsIDM2LCA0Mik7IiBjbGFzcz0iZGpzLWxhYmVsIj48dHNwYW4geT0iMTguNiIgeD0iMjUxLjA3NTE5NTMxMjUiPkludmVzdG9yPC90c3Bhbj48L3RleHQ+PC9nPjxyZWN0IHN0eWxlPSJmaWxsOiBub25lOyIgY2xhc3M9ImRqcy1vdXRsaW5lIiBoZWlnaHQ9IjU1NSIgd2lkdGg9IjIzMjAiIHJ4PSI0IiB5PSItNSIgeD0iLTUiLz48cmVjdCBzdHlsZT0iZmlsbDogbm9uZTsgc3Ryb2tlLW9wYWNpdHk6IDA7IHN0cm9rZTogd2hpdGU7IHN0cm9rZS13aWR0aDogMTVweDsiIGhlaWdodD0iNTQ1IiB3aWR0aD0iMjMxMCIgeT0iMCIgeD0iMCIgY2xhc3M9ImRqcy1oaXQgZGpzLWhpdC1uby1tb3ZlIi8+PHJlY3Qgc3R5bGU9ImZpbGw6IG5vbmU7IHN0cm9rZS1vcGFjaXR5OiAwOyBzdHJva2U6IHdoaXRlOyBzdHJva2Utd2lkdGg6IDE1cHg7IiBoZWlnaHQ9IjU0NSIgd2lkdGg9IjIzMTAiIHk9IjAiIHg9IjAiIGNsYXNzPSJkanMtaGl0IGRqcy1oaXQtY2xpY2stc3Ryb2tlIi8+PHJlY3Qgc3R5bGU9ImZpbGw6IG5vbmU7IHN0cm9rZS1vcGFjaXR5OiAwOyBzdHJva2U6IHdoaXRlOyBzdHJva2Utd2lkdGg6IDE1cHg7IiBoZWlnaHQ9IjU0NSIgd2lkdGg9IjMwIiB5PSIwIiB4PSIwIiBjbGFzcz0iZGpzLWhpdCBkanMtaGl0LWFsbCIvPjwvZz48ZyBjbGFzcz0iZGpzLWNoaWxkcmVuIj48ZyBjbGFzcz0iZGpzLWdyb3VwIj48ZyB0cmFuc2Zvcm09Im1hdHJpeCgxIDAgMCAxIDEzMiAtNDgpIiBzdHlsZT0iZGlzcGxheTogYmxvY2s7IiBkYXRhLWVsZW1lbnQtaWQ9IkV2ZW50XzF0cmMycDAiIGNsYXNzPSJkanMtZWxlbWVudCBkanMtc2hhcGUiPjxnIGNsYXNzPSJkanMtdmlzdWFsIj48Y2lyY2xlIHN0eWxlPSJzdHJva2UtbGluZWNhcDogcm91bmQ7IHN0cm9rZS1saW5lam9pbjogcm91bmQ7IHN0cm9rZTogcmdiKDM0LCAzNiwgNDIpOyBzdHJva2Utd2lkdGg6IDJweDsgZmlsbDogd2hpdGU7IGZpbGwtb3BhY2l0eTogMC45NTsiIHI9IjE4IiBjeT0iMTgiIGN4PSIxOCIvPjwvZz48cmVjdCBzdHlsZT0iZmlsbDogbm9uZTsgc3Ryb2tlLW9wYWNpdHk6IDA7IHN0cm9rZTogd2hpdGU7IHN0cm9rZS13aWR0aDogMTVweDsiIGhlaWdodD0iMzYiIHdpZHRoPSIzNiIgeT0iMCIgeD0iMCIgY2xhc3M9ImRqcy1oaXQgZGpzLWhpdC1hbGwiLz48Y2lyY2xlIHN0eWxlPSJmaWxsOiBub25lOyIgY2xhc3M9ImRqcy1vdXRsaW5lIiByPSIyMyIgY3k9IjE4IiBjeD0iMTgiLz48L2c+PC9nPjxnIGNsYXNzPSJkanMtZ3JvdXAiPjxnIHRyYW5zZm9ybT0ibWF0cml4KDEgMCAwIDEgMjQwIC03MCkiIHN0eWxlPSJkaXNwbGF5OiBibG9jazsiIGRhdGEtZWxlbWVudC1pZD0iQWN0aXZpdHlfMDlodndteCIgY2xhc3M9ImRqcy1lbGVtZW50IGRqcy1zaGFwZSI+PGcgY2xhc3M9ImRqcy12aXN1YWwiPjxyZWN0IHN0eWxlPSJzdHJva2UtbGluZWNhcDogcm91bmQ7IHN0cm9rZS1saW5lam9pbjogcm91bmQ7IHN0cm9rZTogcmdiKDM0LCAzNiwgNDIpOyBzdHJva2Utd2lkdGg6IDJweDsgZmlsbDogd2hpdGU7IGZpbGwtb3BhY2l0eTogMC45NTsiIHJ5PSIxMCIgcng9IjEwIiBoZWlnaHQ9IjgwIiB3aWR0aD0iMTAwIiB5PSIwIiB4PSIwIi8+PHRleHQgc3R5bGU9ImZvbnQtZmFtaWx5OiBBcmlhbCwgc2Fucy1zZXJpZjsgZm9udC1zaXplOiAxMnB4OyBmb250LXdlaWdodDogbm9ybWFsOyBmaWxsOiByZ2IoMzQsIDM2LCA0Mik7IiBjbGFzcz0iZGpzLWxhYmVsIj48dHNwYW4geT0iMzYuNCIgeD0iMTUuMzEyNSI+T3BlbiBzdGFydHVwIDwvdHNwYW4+PHRzcGFuIHk9IjUwLjgiIHg9IjcuMzAwNzgxMjUiPnByb2ZpbGUgZWRpdCBwYWdlPC90c3Bhbj48L3RleHQ+PC9nPjxyZWN0IHN0eWxlPSJmaWxsOiBub25lOyBzdHJva2Utb3BhY2l0eTogMDsgc3Ryb2tlOiB3aGl0ZTsgc3Ryb2tlLXdpZHRoOiAxNXB4OyIgaGVpZ2h0PSI4MCIgd2lkdGg9IjEwMCIgeT0iMCIgeD0iMCIgY2xhc3M9ImRqcy1oaXQgZGpzLWhpdC1hbGwiLz48cmVjdCBzdHlsZT0iZmlsbDogbm9uZTsiIGNsYXNzPSJkanMtb3V0bGluZSIgaGVpZ2h0PSI5MCIgd2lkdGg9IjExMCIgcng9IjE0IiB5PSItNSIgeD0iLTUiLz48L2c+PC9nPjxnIGNsYXNzPSJkanMtZ3JvdXAiPjxnIHRyYW5zZm9ybT0ibWF0cml4KDEgMCAwIDEgNDIwIC03MCkiIHN0eWxlPSJkaXNwbGF5OiBibG9jazsiIGRhdGEtZWxlbWVudC1pZD0iQWN0aXZpdHlfMXE0NDN4eiIgY2xhc3M9ImRqcy1lbGVtZW50IGRqcy1zaGFwZSI+PGcgY2xhc3M9ImRqcy12aXN1YWwiPjxyZWN0IHN0eWxlPSJzdHJva2UtbGluZWNhcDogcm91bmQ7IHN0cm9rZS1saW5lam9pbjogcm91bmQ7IHN0cm9rZTogcmdiKDM0LCAzNiwgNDIpOyBzdHJva2Utd2lkdGg6IDJweDsgZmlsbDogd2hpdGU7IGZpbGwtb3BhY2l0eTogMC45NTsiIHJ5PSIxMCIgcng9IjEwIiBoZWlnaHQ9IjgwIiB3aWR0aD0iMTAwIiB5PSIwIiB4PSIwIi8+PHRleHQgc3R5bGU9ImZvbnQtZmFtaWx5OiBBcmlhbCwgc2Fucy1zZXJpZjsgZm9udC1zaXplOiAxMnB4OyBmb250LXdlaWdodDogbm9ybWFsOyBmaWxsOiByZ2IoMzQsIDM2LCA0Mik7IiBjbGFzcz0iZGpzLWxhYmVsIj48dHNwYW4geT0iMjIiIHg9IjE2LjMxNzM4MjgxMjUiPkFkZCByZWxldmFudCA8L3RzcGFuPjx0c3BhbiB5PSIzNi40IiB4PSIyMC4zMTY0MDYyNSI+aW5mb3JtYXRpb248L3RzcGFuPjx0c3BhbiB5PSI1MC44IiB4PSIyNS42NjQwNjI1Ij4od3lzaXd5ZyA8L3RzcGFuPjx0c3BhbiB5PSI2NS4xOTk5OTk5OTk5OTk5OSIgeD0iMzIuOTkyMTg3NSI+ZWRpdG9yKTwvdHNwYW4+PC90ZXh0PjwvZz48cmVjdCBzdHlsZT0iZmlsbDogbm9uZTsgc3Ryb2tlLW9wYWNpdHk6IDA7IHN0cm9rZTogd2hpdGU7IHN0cm9rZS13aWR0aDogMTVweDsiIGhlaWdodD0iODAiIHdpZHRoPSIxMDAiIHk9IjAiIHg9IjAiIGNsYXNzPSJkanMtaGl0IGRqcy1oaXQtYWxsIi8+PHJlY3Qgc3R5bGU9ImZpbGw6IG5vbmU7IiBjbGFzcz0iZGpzLW91dGxpbmUiIGhlaWdodD0iOTAiIHdpZHRoPSIxMTAiIHJ4PSIxNCIgeT0iLTUiIHg9Ii01Ii8+PC9nPjwvZz48ZyBjbGFzcz0iZGpzLWdyb3VwIj48ZyB0cmFuc2Zvcm09Im1hdHJpeCgxIDAgMCAxIDYwMCAtNzApIiBzdHlsZT0iZGlzcGxheTogYmxvY2s7IiBkYXRhLWVsZW1lbnQtaWQ9IkFjdGl2aXR5XzFxOW90ZzMiIGNsYXNzPSJkanMtZWxlbWVudCBkanMtc2hhcGUiPjxnIGNsYXNzPSJkanMtdmlzdWFsIj48cmVjdCBzdHlsZT0ic3Ryb2tlLWxpbmVjYXA6IHJvdW5kOyBzdHJva2UtbGluZWpvaW46IHJvdW5kOyBzdHJva2U6IHJnYigzNCwgMzYsIDQyKTsgc3Ryb2tlLXdpZHRoOiAycHg7IGZpbGw6IHdoaXRlOyBmaWxsLW9wYWNpdHk6IDAuOTU7IiByeT0iMTAiIHJ4PSIxMCIgaGVpZ2h0PSI4MCIgd2lkdGg9IjEwMCIgeT0iMCIgeD0iMCIvPjx0ZXh0IHN0eWxlPSJmb250LWZhbWlseTogQXJpYWwsIHNhbnMtc2VyaWY7IGZvbnQtc2l6ZTogMTJweDsgZm9udC13ZWlnaHQ6IG5vcm1hbDsgZmlsbDogcmdiKDM0LCAzNiwgNDIpOyIgY2xhc3M9ImRqcy1sYWJlbCI+PHRzcGFuIHk9IjQzLjU5OTk5OTk5OTk5OTk5NCIgeD0iMTguMzEyNSI+U2F2ZSBwcm9maWxlPC90c3Bhbj48L3RleHQ+PC9nPjxyZWN0IHN0eWxlPSJmaWxsOiBub25lOyBzdHJva2Utb3BhY2l0eTogMDsgc3Ryb2tlOiB3aGl0ZTsgc3Ryb2tlLXdpZHRoOiAxNXB4OyIgaGVpZ2h0PSI4MCIgd2lkdGg9IjEwMCIgeT0iMCIgeD0iMCIgY2xhc3M9ImRqcy1oaXQgZGpzLWhpdC1hbGwiLz48cmVjdCBzdHlsZT0iZmlsbDogbm9uZTsiIGNsYXNzPSJkanMtb3V0bGluZSIgaGVpZ2h0PSI5MCIgd2lkdGg9IjExMCIgcng9IjE0IiB5PSItNSIgeD0iLTUiLz48L2c+PC9nPjxnIGNsYXNzPSJkanMtZ3JvdXAiPjxnIHRyYW5zZm9ybT0ibWF0cml4KDEgMCAwIDEgNzkwIC03MCkiIHN0eWxlPSJkaXNwbGF5OiBibG9jazsiIGRhdGEtZWxlbWVudC1pZD0iQWN0aXZpdHlfMGJvcTJweSIgY2xhc3M9ImRqcy1lbGVtZW50IGRqcy1zaGFwZSI+PGcgY2xhc3M9ImRqcy12aXN1YWwiPjxyZWN0IHN0eWxlPSJzdHJva2UtbGluZWNhcDogcm91bmQ7IHN0cm9rZS1saW5lam9pbjogcm91bmQ7IHN0cm9rZTogcmdiKDM0LCAzNiwgNDIpOyBzdHJva2Utd2lkdGg6IDJweDsgZmlsbDogd2hpdGU7IGZpbGwtb3BhY2l0eTogMC45NTsiIHJ5PSIxMCIgcng9IjEwIiBoZWlnaHQ9IjgwIiB3aWR0aD0iMTAwIiB5PSIwIiB4PSIwIi8+PHRleHQgc3R5bGU9ImZvbnQtZmFtaWx5OiBBcmlhbCwgc2Fucy1zZXJpZjsgZm9udC1zaXplOiAxMnB4OyBmb250LXdlaWdodDogbm9ybWFsOyBmaWxsOiByZ2IoMzQsIDM2LCA0Mik7IiBjbGFzcz0iZGpzLWxhYmVsIj48dHNwYW4geT0iMzYuNCIgeD0iMTQuNjUzMzIwMzEyNSI+QWRkIHBheW1lbnQgPC90c3Bhbj48dHNwYW4geT0iNTAuOCIgeD0iNDAuMzI0MjE4NzUiPmluZm88L3RzcGFuPjwvdGV4dD48L2c+PHJlY3Qgc3R5bGU9ImZpbGw6IG5vbmU7IHN0cm9rZS1vcGFjaXR5OiAwOyBzdHJva2U6IHdoaXRlOyBzdHJva2Utd2lkdGg6IDE1cHg7IiBoZWlnaHQ9IjgwIiB3aWR0aD0iMTAwIiB5PSIwIiB4PSIwIiBjbGFzcz0iZGpzLWhpdCBkanMtaGl0LWFsbCIvPjxyZWN0IHN0eWxlPSJmaWxsOiBub25lOyIgY2xhc3M9ImRqcy1vdXRsaW5lIiBoZWlnaHQ9IjkwIiB3aWR0aD0iMTEwIiByeD0iMTQiIHk9Ii01IiB4PSItNSIvPjwvZz48L2c+PGcgY2xhc3M9ImRqcy1ncm91cCI+PGcgdHJhbnNmb3JtPSJtYXRyaXgoMSAwIDAgMSA5NzAgLTcwKSIgc3R5bGU9ImRpc3BsYXk6IGJsb2NrOyIgZGF0YS1lbGVtZW50LWlkPSJBY3Rpdml0eV8wb3cyNW9oIiBjbGFzcz0iZGpzLWVsZW1lbnQgZGpzLXNoYXBlIj48ZyBjbGFzcz0iZGpzLXZpc3VhbCI+PHJlY3Qgc3R5bGU9InN0cm9rZS1saW5lY2FwOiByb3VuZDsgc3Ryb2tlLWxpbmVqb2luOiByb3VuZDsgc3Ryb2tlOiByZ2IoMzQsIDM2LCA0Mik7IHN0cm9rZS13aWR0aDogMnB4OyBmaWxsOiB3aGl0ZTsgZmlsbC1vcGFjaXR5OiAwLjk1OyIgcnk9IjEwIiByeD0iMTAiIGhlaWdodD0iODAiIHdpZHRoPSIxMDAiIHk9IjAiIHg9IjAiLz48dGV4dCBzdHlsZT0iZm9udC1mYW1pbHk6IEFyaWFsLCBzYW5zLXNlcmlmOyBmb250LXNpemU6IDEycHg7IGZvbnQtd2VpZ2h0OiBub3JtYWw7IGZpbGw6IHJnYigzNCwgMzYsIDQyKTsiIGNsYXNzPSJkanMtbGFiZWwiPjx0c3BhbiB5PSIzNi40IiB4PSIxNS4zMTI1Ij5HbyB0byBzdGFydHVwIDwvdHNwYW4+PHRzcGFuIHk9IjUwLjgiIHg9IjMwLjY1MjM0Mzc1Ij5jYXRhbG9nPC90c3Bhbj48L3RleHQ+PC9nPjxyZWN0IHN0eWxlPSJmaWxsOiBub25lOyBzdHJva2Utb3BhY2l0eTogMDsgc3Ryb2tlOiB3aGl0ZTsgc3Ryb2tlLXdpZHRoOiAxNXB4OyIgaGVpZ2h0PSI4MCIgd2lkdGg9IjEwMCIgeT0iMCIgeD0iMCIgY2xhc3M9ImRqcy1oaXQgZGpzLWhpdC1hbGwiLz48cmVjdCBzdHlsZT0iZmlsbDogbm9uZTsiIGNsYXNzPSJkanMtb3V0bGluZSIgaGVpZ2h0PSI5MCIgd2lkdGg9IjExMCIgcng9IjE0IiB5PSItNSIgeD0iLTUiLz48L2c+PC9nPjxnIGNsYXNzPSJkanMtZ3JvdXAiPjxnIHRyYW5zZm9ybT0ibWF0cml4KDEgMCAwIDEgMTE0MCAtNzApIiBzdHlsZT0iZGlzcGxheTogYmxvY2s7IiBkYXRhLWVsZW1lbnQtaWQ9IkFjdGl2aXR5XzFpdml2M3AiIGNsYXNzPSJkanMtZWxlbWVudCBkanMtc2hhcGUiPjxnIGNsYXNzPSJkanMtdmlzdWFsIj48cmVjdCBzdHlsZT0ic3Ryb2tlLWxpbmVjYXA6IHJvdW5kOyBzdHJva2UtbGluZWpvaW46IHJvdW5kOyBzdHJva2U6IHJnYigzNCwgMzYsIDQyKTsgc3Ryb2tlLXdpZHRoOiAycHg7IGZpbGw6IHdoaXRlOyBmaWxsLW9wYWNpdHk6IDAuOTU7IiByeT0iMTAiIHJ4PSIxMCIgaGVpZ2h0PSI4MCIgd2lkdGg9IjEwMCIgeT0iMCIgeD0iMCIvPjx0ZXh0IHN0eWxlPSJmb250LWZhbWlseTogQXJpYWwsIHNhbnMtc2VyaWY7IGZvbnQtc2l6ZTogMTJweDsgZm9udC13ZWlnaHQ6IG5vcm1hbDsgZmlsbDogcmdiKDM0LCAzNiwgNDIpOyIgY2xhc3M9ImRqcy1sYWJlbCI+PHRzcGFuIHk9IjQzLjU5OTk5OTk5OTk5OTk5NCIgeD0iMTMuMzEyNSI+U2VsZWN0IHN0YXJ0dXA8L3RzcGFuPjwvdGV4dD48L2c+PHJlY3Qgc3R5bGU9ImZpbGw6IG5vbmU7IHN0cm9rZS1vcGFjaXR5OiAwOyBzdHJva2U6IHdoaXRlOyBzdHJva2Utd2lkdGg6IDE1cHg7IiBoZWlnaHQ9IjgwIiB3aWR0aD0iMTAwIiB5PSIwIiB4PSIwIiBjbGFzcz0iZGpzLWhpdCBkanMtaGl0LWFsbCIvPjxyZWN0IHN0eWxlPSJmaWxsOiBub25lOyIgY2xhc3M9ImRqcy1vdXRsaW5lIiBoZWlnaHQ9IjkwIiB3aWR0aD0iMTEwIiByeD0iMTQiIHk9Ii01IiB4PSItNSIvPjwvZz48L2c+PGcgY2xhc3M9ImRqcy1ncm91cCI+PGcgdHJhbnNmb3JtPSJtYXRyaXgoMSAwIDAgMSAxMzEwIC03MCkiIHN0eWxlPSJkaXNwbGF5OiBibG9jazsiIGRhdGEtZWxlbWVudC1pZD0iQWN0aXZpdHlfMDBiMnZrYiIgY2xhc3M9ImRqcy1lbGVtZW50IGRqcy1zaGFwZSI+PGcgY2xhc3M9ImRqcy12aXN1YWwiPjxyZWN0IHN0eWxlPSJzdHJva2UtbGluZWNhcDogcm91bmQ7IHN0cm9rZS1saW5lam9pbjogcm91bmQ7IHN0cm9rZTogcmdiKDM0LCAzNiwgNDIpOyBzdHJva2Utd2lkdGg6IDJweDsgZmlsbDogd2hpdGU7IGZpbGwtb3BhY2l0eTogMC45NTsiIHJ5PSIxMCIgcng9IjEwIiBoZWlnaHQ9IjgwIiB3aWR0aD0iMTAwIiB5PSIwIiB4PSIwIi8+PHRleHQgc3R5bGU9ImZvbnQtZmFtaWx5OiBBcmlhbCwgc2Fucy1zZXJpZjsgZm9udC1zaXplOiAxMnB4OyBmb250LXdlaWdodDogbm9ybWFsOyBmaWxsOiByZ2IoMzQsIDM2LCA0Mik7IiBjbGFzcz0iZGpzLWxhYmVsIj48dHNwYW4geT0iMzYuNCIgeD0iMzYuNjkwNDI5Njg3NSI+T2ZmZXIgPC90c3Bhbj48dHNwYW4geT0iNTAuOCIgeD0iMjAuOTg0Mzc1Ij5pbnZlc3RtZW50PC90c3Bhbj48L3RleHQ+PC9nPjxyZWN0IHN0eWxlPSJmaWxsOiBub25lOyBzdHJva2Utb3BhY2l0eTogMDsgc3Ryb2tlOiB3aGl0ZTsgc3Ryb2tlLXdpZHRoOiAxNXB4OyIgaGVpZ2h0PSI4MCIgd2lkdGg9IjEwMCIgeT0iMCIgeD0iMCIgY2xhc3M9ImRqcy1oaXQgZGpzLWhpdC1hbGwiLz48cmVjdCBzdHlsZT0iZmlsbDogbm9uZTsiIGNsYXNzPSJkanMtb3V0bGluZSIgaGVpZ2h0PSI5MCIgd2lkdGg9IjExMCIgcng9IjE0IiB5PSItNSIgeD0iLTUiLz48L2c+PC9nPjxnIGNsYXNzPSJkanMtZ3JvdXAiPjxnIHRyYW5zZm9ybT0ibWF0cml4KDEgMCAwIDEgMTQ1MCAtMTgwKSIgc3R5bGU9ImRpc3BsYXk6IGJsb2NrOyIgZGF0YS1lbGVtZW50LWlkPSJBY3Rpdml0eV8wbng3eHc0IiBjbGFzcz0iZGpzLWVsZW1lbnQgZGpzLXNoYXBlIj48ZyBjbGFzcz0iZGpzLXZpc3VhbCI+PHJlY3Qgc3R5bGU9InN0cm9rZS1saW5lY2FwOiByb3VuZDsgc3Ryb2tlLWxpbmVqb2luOiByb3VuZDsgc3Ryb2tlOiByZ2IoMzQsIDM2LCA0Mik7IHN0cm9rZS13aWR0aDogMnB4OyBmaWxsOiB3aGl0ZTsgZmlsbC1vcGFjaXR5OiAwLjk1OyIgcnk9IjEwIiByeD0iMTAiIGhlaWdodD0iODAiIHdpZHRoPSIxMDAiIHk9IjAiIHg9IjAiLz48dGV4dCBzdHlsZT0iZm9udC1mYW1pbHk6IEFyaWFsLCBzYW5zLXNlcmlmOyBmb250LXNpemU6IDEycHg7IGZvbnQtd2VpZ2h0OiBub3JtYWw7IGZpbGw6IHJnYigzNCwgMzYsIDQyKTsiIGNsYXNzPSJkanMtbGFiZWwiPjx0c3BhbiB5PSIzNi40IiB4PSIzMC4zMTY0MDYyNSI+T3BlbiBhIDwvdHNwYW4+PHRzcGFuIHk9IjUwLjgiIHg9IjE4LjAwNzgxMjUiPmNvdW50ZXJvZmZlcjwvdHNwYW4+PC90ZXh0PjwvZz48cmVjdCBzdHlsZT0iZmlsbDogbm9uZTsgc3Ryb2tlLW9wYWNpdHk6IDA7IHN0cm9rZTogd2hpdGU7IHN0cm9rZS13aWR0aDogMTVweDsiIGhlaWdodD0iODAiIHdpZHRoPSIxMDAiIHk9IjAiIHg9IjAiIGNsYXNzPSJkanMtaGl0IGRqcy1oaXQtYWxsIi8+PHJlY3Qgc3R5bGU9ImZpbGw6IG5vbmU7IiBjbGFzcz0iZGpzLW91dGxpbmUiIGhlaWdodD0iOTAiIHdpZHRoPSIxMTAiIHJ4PSIxNCIgeT0iLTUiIHg9Ii01Ii8+PC9nPjwvZz48ZyBjbGFzcz0iZGpzLWdyb3VwIj48ZyB0cmFuc2Zvcm09Im1hdHJpeCgxIDAgMCAxIDE3NzAgLTE4MCkiIHN0eWxlPSJkaXNwbGF5OiBibG9jazsiIGRhdGEtZWxlbWVudC1pZD0iQWN0aXZpdHlfMDJ3dmh1cCIgY2xhc3M9ImRqcy1lbGVtZW50IGRqcy1zaGFwZSI+PGcgY2xhc3M9ImRqcy12aXN1YWwiPjxyZWN0IHN0eWxlPSJzdHJva2UtbGluZWNhcDogcm91bmQ7IHN0cm9rZS1saW5lam9pbjogcm91bmQ7IHN0cm9rZTogcmdiKDM0LCAzNiwgNDIpOyBzdHJva2Utd2lkdGg6IDJweDsgZmlsbDogd2hpdGU7IGZpbGwtb3BhY2l0eTogMC45NTsiIHJ5PSIxMCIgcng9IjEwIiBoZWlnaHQ9IjgwIiB3aWR0aD0iMTAwIiB5PSIwIiB4PSIwIi8+PHRleHQgc3R5bGU9ImZvbnQtZmFtaWx5OiBBcmlhbCwgc2Fucy1zZXJpZjsgZm9udC1zaXplOiAxMnB4OyBmb250LXdlaWdodDogbm9ybWFsOyBmaWxsOiByZ2IoMzQsIDM2LCA0Mik7IiBjbGFzcz0iZGpzLWxhYmVsIj48dHNwYW4geT0iNDMuNTk5OTk5OTk5OTk5OTk0IiB4PSIzMS42NjUwMzkwNjI1Ij5BY2NlcHQ8L3RzcGFuPjwvdGV4dD48L2c+PHJlY3Qgc3R5bGU9ImZpbGw6IG5vbmU7IHN0cm9rZS1vcGFjaXR5OiAwOyBzdHJva2U6IHdoaXRlOyBzdHJva2Utd2lkdGg6IDE1cHg7IiBoZWlnaHQ9IjgwIiB3aWR0aD0iMTAwIiB5PSIwIiB4PSIwIiBjbGFzcz0iZGpzLWhpdCBkanMtaGl0LWFsbCIvPjxyZWN0IHN0eWxlPSJmaWxsOiBub25lOyIgY2xhc3M9ImRqcy1vdXRsaW5lIiBoZWlnaHQ9IjkwIiB3aWR0aD0iMTEwIiByeD0iMTQiIHk9Ii01IiB4PSItNSIvPjwvZz48L2c+PGcgY2xhc3M9ImRqcy1ncm91cCI+PGcgdHJhbnNmb3JtPSJtYXRyaXgoMSAwIDAgMSAxNjA1IC0xNjUpIiBzdHlsZT0iZGlzcGxheTogYmxvY2s7IiBkYXRhLWVsZW1lbnQtaWQ9IkdhdGV3YXlfMWcycTQ1eCIgY2xhc3M9ImRqcy1lbGVtZW50IGRqcy1zaGFwZSI+PGcgY2xhc3M9ImRqcy12aXN1YWwiPjxwb2x5Z29uIHN0eWxlPSJzdHJva2UtbGluZWNhcDogcm91bmQ7IHN0cm9rZS1saW5lam9pbjogcm91bmQ7IHN0cm9rZTogcmdiKDM0LCAzNiwgNDIpOyBzdHJva2Utd2lkdGg6IDJweDsgZmlsbDogd2hpdGU7IGZpbGwtb3BhY2l0eTogMC45NTsiIHBvaW50cz0iMjUsMCA1MCwyNSAyNSw1MCAwLDI1Ii8+PHBhdGggc3R5bGU9ImZpbGw6IHJnYigzNCwgMzYsIDQyKTsgc3Ryb2tlLWxpbmVjYXA6IHJvdW5kOyBzdHJva2UtbGluZWpvaW46IHJvdW5kOyBzdHJva2U6IHJnYigzNCwgMzYsIDQyKTsgc3Ryb2tlLXdpZHRoOiAxcHg7IiBkPSJtIDE2LDE1IDcuNDI4NTcxNDI4NTcxNDMsOS43MTQyODU3MTQyODU3MTUgLTcuNDI4NTcxNDI4NTcxNDMsOS43MTQyODU3MTQyODU3MTUgMy40Mjg1NzE0Mjg1NzE0MjksMCA1LjcxNDI4NTcxNDI4NTcxNSwtNy40NjQyMjg1NzE0Mjg1NzIgNS43MTQyODU3MTQyODU3MTUsNy40NjQyMjg1NzE0Mjg1NzIgMy40Mjg1NzE0Mjg1NzE0MjksMCAtNy40Mjg1NzE0Mjg1NzE0MywtOS43MTQyODU3MTQyODU3MTUgNy40Mjg1NzE0Mjg1NzE0MywtOS43MTQyODU3MTQyODU3MTUgLTMuNDI4NTcxNDI4NTcxNDI5LDAgLTUuNzE0Mjg1NzE0Mjg1NzE1LDcuNDY0MjI4NTcxNDI4NTcyIC01LjcxNDI4NTcxNDI4NTcxNSwtNy40NjQyMjg1NzE0Mjg1NzIgLTMuNDI4NTcxNDI4NTcxNDI5LDAgeiIvPjwvZz48cmVjdCBzdHlsZT0iZmlsbDogbm9uZTsgc3Ryb2tlLW9wYWNpdHk6IDA7IHN0cm9rZTogd2hpdGU7IHN0cm9rZS13aWR0aDogMTVweDsiIGhlaWdodD0iNTAiIHdpZHRoPSI1MCIgeT0iMCIgeD0iMCIgY2xhc3M9ImRqcy1oaXQgZGpzLWhpdC1hbGwiLz48cmVjdCBzdHlsZT0idHJhbnNmb3JtLWJveDogZmlsbC1ib3g7IHRyYW5zZm9ybTogcm90YXRlKDQ1ZGVnKTsgdHJhbnNmb3JtLW9yaWdpbjogY2VudGVyIGNlbnRlcjsgZmlsbDogbm9uZTsiIGNsYXNzPSJkanMtb3V0bGluZSIgaGVpZ2h0PSI0NiIgd2lkdGg9IjQ2IiByeD0iNCIgeT0iMiIgeD0iMiIvPjwvZz48L2c+PGcgY2xhc3M9ImRqcy1ncm91cCI+PGcgdHJhbnNmb3JtPSJtYXRyaXgoMSAwIDAgMSAxNTgwIC01MCkiIHN0eWxlPSJkaXNwbGF5OiBibG9jazsiIGRhdGEtZWxlbWVudC1pZD0iQWN0aXZpdHlfMGR0dzBjNiIgY2xhc3M9ImRqcy1lbGVtZW50IGRqcy1zaGFwZSI+PGcgY2xhc3M9ImRqcy12aXN1YWwiPjxyZWN0IHN0eWxlPSJzdHJva2UtbGluZWNhcDogcm91bmQ7IHN0cm9rZS1saW5lam9pbjogcm91bmQ7IHN0cm9rZTogcmdiKDM0LCAzNiwgNDIpOyBzdHJva2Utd2lkdGg6IDJweDsgZmlsbDogd2hpdGU7IGZpbGwtb3BhY2l0eTogMC45NTsiIHJ5PSIxMCIgcng9IjEwIiBoZWlnaHQ9IjgwIiB3aWR0aD0iMTAwIiB5PSIwIiB4PSIwIi8+PHRleHQgc3R5bGU9ImZvbnQtZmFtaWx5OiBBcmlhbCwgc2Fucy1zZXJpZjsgZm9udC1zaXplOiAxMnB4OyBmb250LXdlaWdodDogbm9ybWFsOyBmaWxsOiByZ2IoMzQsIDM2LCA0Mik7IiBjbGFzcz0iZGpzLWxhYmVsIj48dHNwYW4geT0iMzYuNCIgeD0iMzUuMzI4MTI1Ij5NYWtlIDwvdHNwYW4+PHRzcGFuIHk9IjUwLjgiIHg9IjE4LjAwNzgxMjUiPmNvdW50ZXJvZmZlcjwvdHNwYW4+PC90ZXh0PjwvZz48cmVjdCBzdHlsZT0iZmlsbDogbm9uZTsgc3Ryb2tlLW9wYWNpdHk6IDA7IHN0cm9rZTogd2hpdGU7IHN0cm9rZS13aWR0aDogMTVweDsiIGhlaWdodD0iODAiIHdpZHRoPSIxMDAiIHk9IjAiIHg9IjAiIGNsYXNzPSJkanMtaGl0IGRqcy1oaXQtYWxsIi8+PHJlY3Qgc3R5bGU9ImZpbGw6IG5vbmU7IiBjbGFzcz0iZGpzLW91dGxpbmUiIGhlaWdodD0iOTAiIHdpZHRoPSIxMTAiIHJ4PSIxNCIgeT0iLTUiIHg9Ii01Ii8+PC9nPjwvZz48ZyBjbGFzcz0iZGpzLWdyb3VwIj48ZyB0cmFuc2Zvcm09Im1hdHJpeCgxIDAgMCAxIDE1ODAgLTMxMCkiIHN0eWxlPSJkaXNwbGF5OiBibG9jazsiIGRhdGEtZWxlbWVudC1pZD0iQWN0aXZpdHlfMDJvMW44cyIgY2xhc3M9ImRqcy1lbGVtZW50IGRqcy1zaGFwZSI+PGcgY2xhc3M9ImRqcy12aXN1YWwiPjxyZWN0IHN0eWxlPSJzdHJva2UtbGluZWNhcDogcm91bmQ7IHN0cm9rZS1saW5lam9pbjogcm91bmQ7IHN0cm9rZTogcmdiKDM0LCAzNiwgNDIpOyBzdHJva2Utd2lkdGg6IDJweDsgZmlsbDogd2hpdGU7IGZpbGwtb3BhY2l0eTogMC45NTsiIHJ5PSIxMCIgcng9IjEwIiBoZWlnaHQ9IjgwIiB3aWR0aD0iMTAwIiB5PSIwIiB4PSIwIi8+PHRleHQgc3R5bGU9ImZvbnQtZmFtaWx5OiBBcmlhbCwgc2Fucy1zZXJpZjsgZm9udC1zaXplOiAxMnB4OyBmb250LXdlaWdodDogbm9ybWFsOyBmaWxsOiByZ2IoMzQsIDM2LCA0Mik7IiBjbGFzcz0iZGpzLWxhYmVsIj48dHNwYW4geT0iNDMuNTk5OTk5OTk5OTk5OTk0IiB4PSIyOS45ODgyODEyNSI+RGVjbGluZTwvdHNwYW4+PC90ZXh0PjwvZz48cmVjdCBzdHlsZT0iZmlsbDogbm9uZTsgc3Ryb2tlLW9wYWNpdHk6IDA7IHN0cm9rZTogd2hpdGU7IHN0cm9rZS13aWR0aDogMTVweDsiIGhlaWdodD0iODAiIHdpZHRoPSIxMDAiIHk9IjAiIHg9IjAiIGNsYXNzPSJkanMtaGl0IGRqcy1oaXQtYWxsIi8+PHJlY3Qgc3R5bGU9ImZpbGw6IG5vbmU7IiBjbGFzcz0iZGpzLW91dGxpbmUiIGhlaWdodD0iOTAiIHdpZHRoPSIxMTAiIHJ4PSIxNCIgeT0iLTUiIHg9Ii01Ii8+PC9nPjwvZz48ZyBjbGFzcz0iZGpzLWdyb3VwIj48ZyB0cmFuc2Zvcm09Im1hdHJpeCgxIDAgMCAxIDE5OTAgLTE4MCkiIHN0eWxlPSJkaXNwbGF5OiBibG9jazsiIGRhdGEtZWxlbWVudC1pZD0iQWN0aXZpdHlfMDlldHpoayIgY2xhc3M9ImRqcy1lbGVtZW50IGRqcy1zaGFwZSI+PGcgY2xhc3M9ImRqcy12aXN1YWwiPjxyZWN0IHN0eWxlPSJzdHJva2UtbGluZWNhcDogcm91bmQ7IHN0cm9rZS1saW5lam9pbjogcm91bmQ7IHN0cm9rZTogcmdiKDM0LCAzNiwgNDIpOyBzdHJva2Utd2lkdGg6IDJweDsgZmlsbDogd2hpdGU7IGZpbGwtb3BhY2l0eTogMC45NTsiIHJ5PSIxMCIgcng9IjEwIiBoZWlnaHQ9IjgwIiB3aWR0aD0iMTAwIiB5PSIwIiB4PSIwIi8+PHRleHQgc3R5bGU9ImZvbnQtZmFtaWx5OiBBcmlhbCwgc2Fucy1zZXJpZjsgZm9udC1zaXplOiAxMnB4OyBmb250LXdlaWdodDogbm9ybWFsOyBmaWxsOiByZ2IoMzQsIDM2LCA0Mik7IiBjbGFzcz0iZGpzLWxhYmVsIj48dHNwYW4geT0iMzYuNCIgeD0iMTMuMzA0Njg3NSI+R2VuZXJhdGUgYW5kIDwvdHNwYW4+PHRzcGFuIHk9IjUwLjgiIHg9IjI0LjY1MjM0Mzc1Ij5zaWduIGRvY3M8L3RzcGFuPjwvdGV4dD48L2c+PHJlY3Qgc3R5bGU9ImZpbGw6IG5vbmU7IHN0cm9rZS1vcGFjaXR5OiAwOyBzdHJva2U6IHdoaXRlOyBzdHJva2Utd2lkdGg6IDE1cHg7IiBoZWlnaHQ9IjgwIiB3aWR0aD0iMTAwIiB5PSIwIiB4PSIwIiBjbGFzcz0iZGpzLWhpdCBkanMtaGl0LWFsbCIvPjxyZWN0IHN0eWxlPSJmaWxsOiBub25lOyIgY2xhc3M9ImRqcy1vdXRsaW5lIiBoZWlnaHQ9IjkwIiB3aWR0aD0iMTEwIiByeD0iMTQiIHk9Ii01IiB4PSItNSIvPjwvZz48L2c+PGcgY2xhc3M9ImRqcy1ncm91cCI+PGcgdHJhbnNmb3JtPSJtYXRyaXgoMSAwIDAgMSAyMjEwIC0xODApIiBzdHlsZT0iZGlzcGxheTogYmxvY2s7IiBkYXRhLWVsZW1lbnQtaWQ9IkFjdGl2aXR5XzF3bDdhaGwiIGNsYXNzPSJkanMtZWxlbWVudCBkanMtc2hhcGUiPjxnIGNsYXNzPSJkanMtdmlzdWFsIj48cmVjdCBzdHlsZT0ic3Ryb2tlLWxpbmVjYXA6IHJvdW5kOyBzdHJva2UtbGluZWpvaW46IHJvdW5kOyBzdHJva2U6IHJnYigzNCwgMzYsIDQyKTsgc3Ryb2tlLXdpZHRoOiAycHg7IGZpbGw6IHdoaXRlOyBmaWxsLW9wYWNpdHk6IDAuOTU7IiByeT0iMTAiIHJ4PSIxMCIgaGVpZ2h0PSI4MCIgd2lkdGg9IjEwMCIgeT0iMCIgeD0iMCIvPjx0ZXh0IHN0eWxlPSJmb250LWZhbWlseTogQXJpYWwsIHNhbnMtc2VyaWY7IGZvbnQtc2l6ZTogMTJweDsgZm9udC13ZWlnaHQ6IG5vcm1hbDsgZmlsbDogcmdiKDM0LCAzNiwgNDIpOyIgY2xhc3M9ImRqcy1sYWJlbCI+PHRzcGFuIHk9IjI5LjIwMDAwMDAwMDAwMDAwMyIgeD0iMTMuNzUzOTA2MjUiPk9mZmVyZWQgZnVuZHMgPC90c3Bhbj48dHNwYW4geT0iNDMuNiIgeD0iMTYuMzEyNSI+dHJhbnNmZXJlZCB0byA8L3RzcGFuPjx0c3BhbiB5PSI1OCIgeD0iMzEuNjU2MjUiPnN0YXJ0dXA8L3RzcGFuPjwvdGV4dD48L2c+PHJlY3Qgc3R5bGU9ImZpbGw6IG5vbmU7IHN0cm9rZS1vcGFjaXR5OiAwOyBzdHJva2U6IHdoaXRlOyBzdHJva2Utd2lkdGg6IDE1cHg7IiBoZWlnaHQ9IjgwIiB3aWR0aD0iMTAwIiB5PSIwIiB4PSIwIiBjbGFzcz0iZGpzLWhpdCBkanMtaGl0LWFsbCIvPjxyZWN0IHN0eWxlPSJmaWxsOiBub25lOyIgY2xhc3M9ImRqcy1vdXRsaW5lIiBoZWlnaHQ9IjkwIiB3aWR0aD0iMTEwIiByeD0iMTQiIHk9Ii01IiB4PSItNSIvPjwvZz48L2c+PGcgY2xhc3M9ImRqcy1ncm91cCI+PGcgc3R5bGU9ImRpc3BsYXk6IGJsb2NrOyIgZGF0YS1lbGVtZW50LWlkPSJGbG93XzF0cXA1cDMiIGNsYXNzPSJkanMtZWxlbWVudCBkanMtY29ubmVjdGlvbiI+PGcgY2xhc3M9ImRqcy12aXN1YWwiPjxwYXRoIGQ9Ik0xNjgsLTMwTDI0MCwtMzAiIHN0eWxlPSJmaWxsOiBub25lOyBzdHJva2UtbGluZWNhcDogcm91bmQ7IHN0cm9rZS1saW5lam9pbjogcm91bmQ7IHN0cm9rZTogcmdiKDM0LCAzNiwgNDIpOyBzdHJva2Utd2lkdGg6IDJweDsgbWFya2VyLWVuZDogdXJsKCcjc2VxdWVuY2VmbG93LWVuZC13aGl0ZS1oc2xfMjI1XzEwXzE1Xy0yb21ncml3bTAxbmFyN20weW8yaWJvcTBuJyk7IiBkYXRhLWNvcm5lci1yYWRpdXM9IjUiLz48L2c+PHBhdGggc3R5bGU9ImZpbGw6IG5vbmU7IHN0cm9rZS1vcGFjaXR5OiAwOyBzdHJva2U6IHdoaXRlOyBzdHJva2Utd2lkdGg6IDE1cHg7IiBjbGFzcz0iZGpzLWhpdCBkanMtaGl0LXN0cm9rZSIgZD0iTTE2OCwtMzBMMjQwLC0zMCIvPjxyZWN0IHN0eWxlPSJmaWxsOiBub25lOyIgY2xhc3M9ImRqcy1vdXRsaW5lIiBoZWlnaHQ9IjEwIiB3aWR0aD0iODIiIHJ4PSI0IiB5PSItMzUiIHg9IjE2MyIvPjwvZz48L2c+PGcgY2xhc3M9ImRqcy1ncm91cCI+PGcgc3R5bGU9ImRpc3BsYXk6IGJsb2NrOyIgZGF0YS1lbGVtZW50LWlkPSJGbG93XzBnYWd4MjAiIGNsYXNzPSJkanMtZWxlbWVudCBkanMtY29ubmVjdGlvbiI+PGcgY2xhc3M9ImRqcy12aXN1YWwiPjxwYXRoIGQ9Ik0zNDAsLTMwTDQyMCwtMzAiIHN0eWxlPSJmaWxsOiBub25lOyBzdHJva2UtbGluZWNhcDogcm91bmQ7IHN0cm9rZS1saW5lam9pbjogcm91bmQ7IHN0cm9rZTogcmdiKDM0LCAzNiwgNDIpOyBzdHJva2Utd2lkdGg6IDJweDsgbWFya2VyLWVuZDogdXJsKCcjc2VxdWVuY2VmbG93LWVuZC13aGl0ZS1oc2xfMjI1XzEwXzE1Xy0yb21ncml3bTAxbmFyN20weW8yaWJvcTBuJyk7IiBkYXRhLWNvcm5lci1yYWRpdXM9IjUiLz48L2c+PHBhdGggc3R5bGU9ImZpbGw6IG5vbmU7IHN0cm9rZS1vcGFjaXR5OiAwOyBzdHJva2U6IHdoaXRlOyBzdHJva2Utd2lkdGg6IDE1cHg7IiBjbGFzcz0iZGpzLWhpdCBkanMtaGl0LXN0cm9rZSIgZD0iTTM0MCwtMzBMNDIwLC0zMCIvPjxyZWN0IHN0eWxlPSJmaWxsOiBub25lOyIgY2xhc3M9ImRqcy1vdXRsaW5lIiBoZWlnaHQ9IjEwIiB3aWR0aD0iOTAiIHJ4PSI0IiB5PSItMzUiIHg9IjMzNSIvPjwvZz48L2c+PGcgY2xhc3M9ImRqcy1ncm91cCI+PGcgc3R5bGU9ImRpc3BsYXk6IGJsb2NrOyIgZGF0YS1lbGVtZW50LWlkPSJGbG93XzA5c2s2aHciIGNsYXNzPSJkanMtZWxlbWVudCBkanMtY29ubmVjdGlvbiI+PGcgY2xhc3M9ImRqcy12aXN1YWwiPjxwYXRoIGQ9Ik01MjAsLTMwTDYwMCwtMzAiIHN0eWxlPSJmaWxsOiBub25lOyBzdHJva2UtbGluZWNhcDogcm91bmQ7IHN0cm9rZS1saW5lam9pbjogcm91bmQ7IHN0cm9rZTogcmdiKDM0LCAzNiwgNDIpOyBzdHJva2Utd2lkdGg6IDJweDsgbWFya2VyLWVuZDogdXJsKCcjc2VxdWVuY2VmbG93LWVuZC13aGl0ZS1oc2xfMjI1XzEwXzE1Xy0yb21ncml3bTAxbmFyN20weW8yaWJvcTBuJyk7IiBkYXRhLWNvcm5lci1yYWRpdXM9IjUiLz48L2c+PHBhdGggc3R5bGU9ImZpbGw6IG5vbmU7IHN0cm9rZS1vcGFjaXR5OiAwOyBzdHJva2U6IHdoaXRlOyBzdHJva2Utd2lkdGg6IDE1cHg7IiBjbGFzcz0iZGpzLWhpdCBkanMtaGl0LXN0cm9rZSIgZD0iTTUyMCwtMzBMNjAwLC0zMCIvPjxyZWN0IHN0eWxlPSJmaWxsOiBub25lOyIgY2xhc3M9ImRqcy1vdXRsaW5lIiBoZWlnaHQ9IjEwIiB3aWR0aD0iOTAiIHJ4PSI0IiB5PSItMzUiIHg9IjUxNSIvPjwvZz48L2c+PGcgY2xhc3M9ImRqcy1ncm91cCI+PGcgc3R5bGU9ImRpc3BsYXk6IGJsb2NrOyIgZGF0YS1lbGVtZW50LWlkPSJGbG93XzBzdGl6NDciIGNsYXNzPSJkanMtZWxlbWVudCBkanMtY29ubmVjdGlvbiI+PGcgY2xhc3M9ImRqcy12aXN1YWwiPjxwYXRoIGQ9Ik03MDAsLTMwTDc5MCwtMzAiIHN0eWxlPSJmaWxsOiBub25lOyBzdHJva2UtbGluZWNhcDogcm91bmQ7IHN0cm9rZS1saW5lam9pbjogcm91bmQ7IHN0cm9rZTogcmdiKDM0LCAzNiwgNDIpOyBzdHJva2Utd2lkdGg6IDJweDsgbWFya2VyLWVuZDogdXJsKCcjc2VxdWVuY2VmbG93LWVuZC13aGl0ZS1oc2xfMjI1XzEwXzE1Xy0yb21ncml3bTAxbmFyN20weW8yaWJvcTBuJyk7IiBkYXRhLWNvcm5lci1yYWRpdXM9IjUiLz48L2c+PHBhdGggc3R5bGU9ImZpbGw6IG5vbmU7IHN0cm9rZS1vcGFjaXR5OiAwOyBzdHJva2U6IHdoaXRlOyBzdHJva2Utd2lkdGg6IDE1cHg7IiBjbGFzcz0iZGpzLWhpdCBkanMtaGl0LXN0cm9rZSIgZD0iTTcwMCwtMzBMNzkwLC0zMCIvPjxyZWN0IHN0eWxlPSJmaWxsOiBub25lOyIgY2xhc3M9ImRqcy1vdXRsaW5lIiBoZWlnaHQ9IjEwIiB3aWR0aD0iMTAwIiByeD0iNCIgeT0iLTM1IiB4PSI2OTUiLz48L2c+PC9nPjxnIGNsYXNzPSJkanMtZ3JvdXAiPjxnIHN0eWxlPSJkaXNwbGF5OiBibG9jazsiIGRhdGEtZWxlbWVudC1pZD0iRmxvd18xczE2N2VnIiBjbGFzcz0iZGpzLWVsZW1lbnQgZGpzLWNvbm5lY3Rpb24iPjxnIGNsYXNzPSJkanMtdmlzdWFsIj48cGF0aCBkPSJNODkwLC0zMEw5NzAsLTMwIiBzdHlsZT0iZmlsbDogbm9uZTsgc3Ryb2tlLWxpbmVjYXA6IHJvdW5kOyBzdHJva2UtbGluZWpvaW46IHJvdW5kOyBzdHJva2U6IHJnYigzNCwgMzYsIDQyKTsgc3Ryb2tlLXdpZHRoOiAycHg7IG1hcmtlci1lbmQ6IHVybCgnI3NlcXVlbmNlZmxvdy1lbmQtd2hpdGUtaHNsXzIyNV8xMF8xNV8tMm9tZ3Jpd20wMW5hcjdtMHlvMmlib3EwbicpOyIgZGF0YS1jb3JuZXItcmFkaXVzPSI1Ii8+PC9nPjxwYXRoIHN0eWxlPSJmaWxsOiBub25lOyBzdHJva2Utb3BhY2l0eTogMDsgc3Ryb2tlOiB3aGl0ZTsgc3Ryb2tlLXdpZHRoOiAxNXB4OyIgY2xhc3M9ImRqcy1oaXQgZGpzLWhpdC1zdHJva2UiIGQ9Ik04OTAsLTMwTDk3MCwtMzAiLz48cmVjdCBzdHlsZT0iZmlsbDogbm9uZTsiIGNsYXNzPSJkanMtb3V0bGluZSIgaGVpZ2h0PSIxMCIgd2lkdGg9IjkwIiByeD0iNCIgeT0iLTM1IiB4PSI4ODUiLz48L2c+PC9nPjxnIGNsYXNzPSJkanMtZ3JvdXAiPjxnIHN0eWxlPSJkaXNwbGF5OiBibG9jazsiIGRhdGEtZWxlbWVudC1pZD0iRmxvd18wajVteWthIiBjbGFzcz0iZGpzLWVsZW1lbnQgZGpzLWNvbm5lY3Rpb24iPjxnIGNsYXNzPSJkanMtdmlzdWFsIj48cGF0aCBkPSJNMTA3MCwtMzBMMTE0MCwtMzAiIHN0eWxlPSJmaWxsOiBub25lOyBzdHJva2UtbGluZWNhcDogcm91bmQ7IHN0cm9rZS1saW5lam9pbjogcm91bmQ7IHN0cm9rZTogcmdiKDM0LCAzNiwgNDIpOyBzdHJva2Utd2lkdGg6IDJweDsgbWFya2VyLWVuZDogdXJsKCcjc2VxdWVuY2VmbG93LWVuZC13aGl0ZS1oc2xfMjI1XzEwXzE1Xy0yb21ncml3bTAxbmFyN20weW8yaWJvcTBuJyk7IiBkYXRhLWNvcm5lci1yYWRpdXM9IjUiLz48L2c+PHBhdGggc3R5bGU9ImZpbGw6IG5vbmU7IHN0cm9rZS1vcGFjaXR5OiAwOyBzdHJva2U6IHdoaXRlOyBzdHJva2Utd2lkdGg6IDE1cHg7IiBjbGFzcz0iZGpzLWhpdCBkanMtaGl0LXN0cm9rZSIgZD0iTTEwNzAsLTMwTDExNDAsLTMwIi8+PHJlY3Qgc3R5bGU9ImZpbGw6IG5vbmU7IiBjbGFzcz0iZGpzLW91dGxpbmUiIGhlaWdodD0iMTAiIHdpZHRoPSI4MCIgcng9IjQiIHk9Ii0zNSIgeD0iMTA2NSIvPjwvZz48L2c+PGcgY2xhc3M9ImRqcy1ncm91cCI+PGcgc3R5bGU9ImRpc3BsYXk6IGJsb2NrOyIgZGF0YS1lbGVtZW50LWlkPSJGbG93XzBlYmJ2OGUiIGNsYXNzPSJkanMtZWxlbWVudCBkanMtY29ubmVjdGlvbiI+PGcgY2xhc3M9ImRqcy12aXN1YWwiPjxwYXRoIGQ9Ik0xMjQwLC0zMEwxMzEwLC0zMCIgc3R5bGU9ImZpbGw6IG5vbmU7IHN0cm9rZS1saW5lY2FwOiByb3VuZDsgc3Ryb2tlLWxpbmVqb2luOiByb3VuZDsgc3Ryb2tlOiByZ2IoMzQsIDM2LCA0Mik7IHN0cm9rZS13aWR0aDogMnB4OyBtYXJrZXItZW5kOiB1cmwoJyNzZXF1ZW5jZWZsb3ctZW5kLXdoaXRlLWhzbF8yMjVfMTBfMTVfLTJvbWdyaXdtMDFuYXI3bTB5bzJpYm9xMG4nKTsiIGRhdGEtY29ybmVyLXJhZGl1cz0iNSIvPjwvZz48cGF0aCBzdHlsZT0iZmlsbDogbm9uZTsgc3Ryb2tlLW9wYWNpdHk6IDA7IHN0cm9rZTogd2hpdGU7IHN0cm9rZS13aWR0aDogMTVweDsiIGNsYXNzPSJkanMtaGl0IGRqcy1oaXQtc3Ryb2tlIiBkPSJNMTI0MCwtMzBMMTMxMCwtMzAiLz48cmVjdCBzdHlsZT0iZmlsbDogbm9uZTsiIGNsYXNzPSJkanMtb3V0bGluZSIgaGVpZ2h0PSIxMCIgd2lkdGg9IjgwIiByeD0iNCIgeT0iLTM1IiB4PSIxMjM1Ii8+PC9nPjwvZz48ZyBjbGFzcz0iZGpzLWdyb3VwIj48ZyBzdHlsZT0iZGlzcGxheTogYmxvY2s7IiBkYXRhLWVsZW1lbnQtaWQ9IkZsb3dfMGQxd201ciIgY2xhc3M9ImRqcy1lbGVtZW50IGRqcy1jb25uZWN0aW9uIj48ZyBjbGFzcz0iZGpzLXZpc3VhbCI+PHBhdGggZD0iTTE1NTAsLTE0MEwxNjA1LC0xNDAiIHN0eWxlPSJmaWxsOiBub25lOyBzdHJva2UtbGluZWNhcDogcm91bmQ7IHN0cm9rZS1saW5lam9pbjogcm91bmQ7IHN0cm9rZTogcmdiKDM0LCAzNiwgNDIpOyBzdHJva2Utd2lkdGg6IDJweDsgbWFya2VyLWVuZDogdXJsKCcjc2VxdWVuY2VmbG93LWVuZC13aGl0ZS1oc2xfMjI1XzEwXzE1Xy0yb21ncml3bTAxbmFyN20weW8yaWJvcTBuJyk7IiBkYXRhLWNvcm5lci1yYWRpdXM9IjUiLz48L2c+PHBhdGggc3R5bGU9ImZpbGw6IG5vbmU7IHN0cm9rZS1vcGFjaXR5OiAwOyBzdHJva2U6IHdoaXRlOyBzdHJva2Utd2lkdGg6IDE1cHg7IiBjbGFzcz0iZGpzLWhpdCBkanMtaGl0LXN0cm9rZSIgZD0iTTE1NTAsLTE0MEwxNjA1LC0xNDAiLz48cmVjdCBzdHlsZT0iZmlsbDogbm9uZTsiIGNsYXNzPSJkanMtb3V0bGluZSIgaGVpZ2h0PSIxMCIgd2lkdGg9IjY1IiByeD0iNCIgeT0iLTE0NSIgeD0iMTU0NSIvPjwvZz48L2c+PGcgY2xhc3M9ImRqcy1ncm91cCI+PGcgc3R5bGU9ImRpc3BsYXk6IGJsb2NrOyIgZGF0YS1lbGVtZW50LWlkPSJGbG93XzFhNGRrNmgiIGNsYXNzPSJkanMtZWxlbWVudCBkanMtY29ubmVjdGlvbiI+PGcgY2xhc3M9ImRqcy12aXN1YWwiPjxwYXRoIGQ9Ik0xNjU1LC0xNDBMMTc3MCwtMTQwIiBzdHlsZT0iZmlsbDogbm9uZTsgc3Ryb2tlLWxpbmVjYXA6IHJvdW5kOyBzdHJva2UtbGluZWpvaW46IHJvdW5kOyBzdHJva2U6IHJnYigzNCwgMzYsIDQyKTsgc3Ryb2tlLXdpZHRoOiAycHg7IG1hcmtlci1lbmQ6IHVybCgnI3NlcXVlbmNlZmxvdy1lbmQtd2hpdGUtaHNsXzIyNV8xMF8xNV8tMm9tZ3Jpd20wMW5hcjdtMHlvMmlib3EwbicpOyIgZGF0YS1jb3JuZXItcmFkaXVzPSI1Ii8+PC9nPjxwYXRoIHN0eWxlPSJmaWxsOiBub25lOyBzdHJva2Utb3BhY2l0eTogMDsgc3Ryb2tlOiB3aGl0ZTsgc3Ryb2tlLXdpZHRoOiAxNXB4OyIgY2xhc3M9ImRqcy1oaXQgZGpzLWhpdC1zdHJva2UiIGQ9Ik0xNjU1LC0xNDBMMTc3MCwtMTQwIi8+PHJlY3Qgc3R5bGU9ImZpbGw6IG5vbmU7IiBjbGFzcz0iZGpzLW91dGxpbmUiIGhlaWdodD0iMTAiIHdpZHRoPSIxMjUiIHJ4PSI0IiB5PSItMTQ1IiB4PSIxNjUwIi8+PC9nPjwvZz48ZyBjbGFzcz0iZGpzLWdyb3VwIj48ZyBzdHlsZT0iZGlzcGxheTogYmxvY2s7IiBkYXRhLWVsZW1lbnQtaWQ9IkZsb3dfMTBkNWcxaiIgY2xhc3M9ImRqcy1lbGVtZW50IGRqcy1jb25uZWN0aW9uIj48ZyBjbGFzcz0iZGpzLXZpc3VhbCI+PHBhdGggZD0iTTE2MzAsLTExNUwxNjMwLC01MCIgc3R5bGU9ImZpbGw6IG5vbmU7IHN0cm9rZS1saW5lY2FwOiByb3VuZDsgc3Ryb2tlLWxpbmVqb2luOiByb3VuZDsgc3Ryb2tlOiByZ2IoMzQsIDM2LCA0Mik7IHN0cm9rZS13aWR0aDogMnB4OyBtYXJrZXItZW5kOiB1cmwoJyNzZXF1ZW5jZWZsb3ctZW5kLXdoaXRlLWhzbF8yMjVfMTBfMTVfLTJvbWdyaXdtMDFuYXI3bTB5bzJpYm9xMG4nKTsiIGRhdGEtY29ybmVyLXJhZGl1cz0iNSIvPjwvZz48cGF0aCBzdHlsZT0iZmlsbDogbm9uZTsgc3Ryb2tlLW9wYWNpdHk6IDA7IHN0cm9rZTogd2hpdGU7IHN0cm9rZS13aWR0aDogMTVweDsiIGNsYXNzPSJkanMtaGl0IGRqcy1oaXQtc3Ryb2tlIiBkPSJNMTYzMCwtMTE1TDE2MzAsLTUwIi8+PHJlY3Qgc3R5bGU9ImZpbGw6IG5vbmU7IiBjbGFzcz0iZGpzLW91dGxpbmUiIGhlaWdodD0iNzUiIHdpZHRoPSIxMCIgcng9IjQiIHk9Ii0xMjAiIHg9IjE2MjUiLz48L2c+PC9nPjxnIGNsYXNzPSJkanMtZ3JvdXAiPjxnIHN0eWxlPSJkaXNwbGF5OiBibG9jazsiIGRhdGEtZWxlbWVudC1pZD0iRmxvd18xcG40YzN0IiBjbGFzcz0iZGpzLWVsZW1lbnQgZGpzLWNvbm5lY3Rpb24iPjxnIGNsYXNzPSJkanMtdmlzdWFsIj48cGF0aCBkPSJNMTYzMCwtMTY1TDE2MzAsLTIzMCIgc3R5bGU9ImZpbGw6IG5vbmU7IHN0cm9rZS1saW5lY2FwOiByb3VuZDsgc3Ryb2tlLWxpbmVqb2luOiByb3VuZDsgc3Ryb2tlOiByZ2IoMzQsIDM2LCA0Mik7IHN0cm9rZS13aWR0aDogMnB4OyBtYXJrZXItZW5kOiB1cmwoJyNzZXF1ZW5jZWZsb3ctZW5kLXdoaXRlLWhzbF8yMjVfMTBfMTVfLTJvbWdyaXdtMDFuYXI3bTB5bzJpYm9xMG4nKTsiIGRhdGEtY29ybmVyLXJhZGl1cz0iNSIvPjwvZz48cGF0aCBzdHlsZT0iZmlsbDogbm9uZTsgc3Ryb2tlLW9wYWNpdHk6IDA7IHN0cm9rZTogd2hpdGU7IHN0cm9rZS13aWR0aDogMTVweDsiIGNsYXNzPSJkanMtaGl0IGRqcy1oaXQtc3Ryb2tlIiBkPSJNMTYzMCwtMTY1TDE2MzAsLTIzMCIvPjxyZWN0IHN0eWxlPSJmaWxsOiBub25lOyIgY2xhc3M9ImRqcy1vdXRsaW5lIiBoZWlnaHQ9Ijc1IiB3aWR0aD0iMTAiIHJ4PSI0IiB5PSItMjM1IiB4PSIxNjI1Ii8+PC9nPjwvZz48ZyBjbGFzcz0iZGpzLWdyb3VwIj48ZyBzdHlsZT0iZGlzcGxheTogYmxvY2s7IiBkYXRhLWVsZW1lbnQtaWQ9IkZsb3dfMTIyOTgwNyIgY2xhc3M9ImRqcy1lbGVtZW50IGRqcy1jb25uZWN0aW9uIj48ZyBjbGFzcz0iZGpzLXZpc3VhbCI+PHBhdGggZD0iTTE4NzAsLTE0MEwxOTkwLC0xNDAiIHN0eWxlPSJmaWxsOiBub25lOyBzdHJva2UtbGluZWNhcDogcm91bmQ7IHN0cm9rZS1saW5lam9pbjogcm91bmQ7IHN0cm9rZTogcmdiKDM0LCAzNiwgNDIpOyBzdHJva2Utd2lkdGg6IDJweDsgbWFya2VyLWVuZDogdXJsKCcjc2VxdWVuY2VmbG93LWVuZC13aGl0ZS1oc2xfMjI1XzEwXzE1Xy0yb21ncml3bTAxbmFyN20weW8yaWJvcTBuJyk7IiBkYXRhLWNvcm5lci1yYWRpdXM9IjUiLz48L2c+PHBhdGggc3R5bGU9ImZpbGw6IG5vbmU7IHN0cm9rZS1vcGFjaXR5OiAwOyBzdHJva2U6IHdoaXRlOyBzdHJva2Utd2lkdGg6IDE1cHg7IiBjbGFzcz0iZGpzLWhpdCBkanMtaGl0LXN0cm9rZSIgZD0iTTE4NzAsLTE0MEwxOTkwLC0xNDAiLz48cmVjdCBzdHlsZT0iZmlsbDogbm9uZTsiIGNsYXNzPSJkanMtb3V0bGluZSIgaGVpZ2h0PSIxMCIgd2lkdGg9IjEzMCIgcng9IjQiIHk9Ii0xNDUiIHg9IjE4NjUiLz48L2c+PC9nPjxnIGNsYXNzPSJkanMtZ3JvdXAiPjxnIHN0eWxlPSJkaXNwbGF5OiBibG9jazsiIGRhdGEtZWxlbWVudC1pZD0iRmxvd18xbHYyZnY3IiBjbGFzcz0iZGpzLWVsZW1lbnQgZGpzLWNvbm5lY3Rpb24iPjxnIGNsYXNzPSJkanMtdmlzdWFsIj48cGF0aCBkPSJNMjA5MCwtMTQwTDIyMTAsLTE0MCIgc3R5bGU9ImZpbGw6IG5vbmU7IHN0cm9rZS1saW5lY2FwOiByb3VuZDsgc3Ryb2tlLWxpbmVqb2luOiByb3VuZDsgc3Ryb2tlOiByZ2IoMzQsIDM2LCA0Mik7IHN0cm9rZS13aWR0aDogMnB4OyBtYXJrZXItZW5kOiB1cmwoJyNzZXF1ZW5jZWZsb3ctZW5kLXdoaXRlLWhzbF8yMjVfMTBfMTVfLTJvbWdyaXdtMDFuYXI3bTB5bzJpYm9xMG4nKTsiIGRhdGEtY29ybmVyLXJhZGl1cz0iNSIvPjwvZz48cGF0aCBzdHlsZT0iZmlsbDogbm9uZTsgc3Ryb2tlLW9wYWNpdHk6IDA7IHN0cm9rZTogd2hpdGU7IHN0cm9rZS13aWR0aDogMTVweDsiIGNsYXNzPSJkanMtaGl0IGRqcy1oaXQtc3Ryb2tlIiBkPSJNMjA5MCwtMTQwTDIyMTAsLTE0MCIvPjxyZWN0IHN0eWxlPSJmaWxsOiBub25lOyIgY2xhc3M9ImRqcy1vdXRsaW5lIiBoZWlnaHQ9IjEwIiB3aWR0aD0iMTMwIiByeD0iNCIgeT0iLTE0NSIgeD0iMjA4NSIvPjwvZz48L2c+PC9nPjwvZz48ZyBjbGFzcz0iZGpzLWdyb3VwIj48ZyB0cmFuc2Zvcm09Im1hdHJpeCgxIDAgMCAxIDEzNyAtNSkiIHN0eWxlPSJkaXNwbGF5OiBibG9jazsiIGRhdGEtZWxlbWVudC1pZD0ibGFiZWxfMTIiIGNsYXNzPSJkanMtZWxlbWVudCBkanMtc2hhcGUiPjxnIGNsYXNzPSJkanMtdmlzdWFsIj48dGV4dCBzdHlsZT0iZm9udC1mYW1pbHk6IEFyaWFsLCBzYW5zLXNlcmlmOyBmb250LXNpemU6IDExcHg7IGZvbnQtd2VpZ2h0OiBub3JtYWw7IGZpbGw6IHJnYigzNCwgMzYsIDQyKTsiIGNsYXNzPSJkanMtbGFiZWwiPjx0c3BhbiB5PSI5Ljg5OTk5OTk5OTk5OTk5OSIgeD0iMCI+TG9naW48L3RzcGFuPjwvdGV4dD48L2c+PHJlY3Qgc3R5bGU9ImZpbGw6IG5vbmU7IHN0cm9rZS1vcGFjaXR5OiAwOyBzdHJva2U6IHdoaXRlOyBzdHJva2Utd2lkdGg6IDE1cHg7IiBoZWlnaHQ9IjE0IiB3aWR0aD0iMjciIHk9IjAiIHg9IjAiIGNsYXNzPSJkanMtaGl0IGRqcy1oaXQtYWxsIi8+PHJlY3Qgc3R5bGU9ImZpbGw6IG5vbmU7IiBjbGFzcz0iZGpzLW91dGxpbmUiIGhlaWdodD0iMjQiIHdpZHRoPSIzNyIgcng9IjQiIHk9Ii01IiB4PSItNSIvPjwvZz48L2c+PGcgY2xhc3M9ImRqcy1ncm91cCI+PGcgdHJhbnNmb3JtPSJtYXRyaXgoMSAwIDAgMSA3MCAyMDUpIiBzdHlsZT0iZGlzcGxheTogYmxvY2s7IiBkYXRhLWVsZW1lbnQtaWQ9IlBhcnRpY2lwYW50XzEwbHJnMmYiIGNsYXNzPSJkanMtZWxlbWVudCBkanMtc2hhcGUiPjxnIGNsYXNzPSJkanMtdmlzdWFsIj48cmVjdCBzdHlsZT0ic3Ryb2tlLWxpbmVjYXA6IHJvdW5kOyBzdHJva2UtbGluZWpvaW46IHJvdW5kOyBzdHJva2U6IHJnYigzNCwgMzYsIDQyKTsgc3Ryb2tlLXdpZHRoOiAxLjVweDsgZmlsbDogd2hpdGU7IGZpbGwtb3BhY2l0eTogMC45NTsiIHJ5PSIwIiByeD0iMCIgaGVpZ2h0PSI0NDUiIHdpZHRoPSIyMzEwIiB5PSIwIiB4PSIwIi8+PHBhdGggZD0iTTMwLDBMMzAsNDQ1IiBzdHlsZT0iZmlsbDogbm9uZTsgc3Ryb2tlLWxpbmVjYXA6IHJvdW5kOyBzdHJva2UtbGluZWpvaW46IHJvdW5kOyBzdHJva2U6IHJnYigzNCwgMzYsIDQyKTsgc3Ryb2tlLXdpZHRoOiAxLjVweDsiLz48dGV4dCB0cmFuc2Zvcm09Im1hdHJpeCgtMS44MzY5N2UtMTYgLTEgMSAtMS44MzY5N2UtMTYgMCA0NDUpIiBzdHlsZT0iZm9udC1mYW1pbHk6IEFyaWFsLCBzYW5zLXNlcmlmOyBmb250LXNpemU6IDEycHg7IGZvbnQtd2VpZ2h0OiBub3JtYWw7IGZpbGw6IHJnYigzNCwgMzYsIDQyKTsiIGNsYXNzPSJkanMtbGFiZWwiPjx0c3BhbiB5PSIxOC42IiB4PSIyMDMuMTUyMzQzNzUiPlN0YXJ0dXA8L3RzcGFuPjwvdGV4dD48L2c+PHJlY3Qgc3R5bGU9ImZpbGw6IG5vbmU7IiBjbGFzcz0iZGpzLW91dGxpbmUiIGhlaWdodD0iNDU1IiB3aWR0aD0iMjMyMCIgcng9IjQiIHk9Ii01IiB4PSItNSIvPjxyZWN0IHN0eWxlPSJmaWxsOiBub25lOyBzdHJva2Utb3BhY2l0eTogMDsgc3Ryb2tlOiB3aGl0ZTsgc3Ryb2tlLXdpZHRoOiAxNXB4OyIgaGVpZ2h0PSI0NDUiIHdpZHRoPSIyMzEwIiB5PSIwIiB4PSIwIiBjbGFzcz0iZGpzLWhpdCBkanMtaGl0LW5vLW1vdmUiLz48cmVjdCBzdHlsZT0iZmlsbDogbm9uZTsgc3Ryb2tlLW9wYWNpdHk6IDA7IHN0cm9rZTogd2hpdGU7IHN0cm9rZS13aWR0aDogMTVweDsiIGhlaWdodD0iNDQ1IiB3aWR0aD0iMjMxMCIgeT0iMCIgeD0iMCIgY2xhc3M9ImRqcy1oaXQgZGpzLWhpdC1jbGljay1zdHJva2UiLz48cmVjdCBzdHlsZT0iZmlsbDogbm9uZTsgc3Ryb2tlLW9wYWNpdHk6IDA7IHN0cm9rZTogd2hpdGU7IHN0cm9rZS13aWR0aDogMTVweDsiIGhlaWdodD0iNDQ1IiB3aWR0aD0iMzAiIHk9IjAiIHg9IjAiIGNsYXNzPSJkanMtaGl0IGRqcy1oaXQtYWxsIi8+PC9nPjxnIGNsYXNzPSJkanMtY2hpbGRyZW4iPjxnIGNsYXNzPSJkanMtZ3JvdXAiPjxnIHRyYW5zZm9ybT0ibWF0cml4KDEgMCAwIDEgMTQyIDQyMikiIHN0eWxlPSJkaXNwbGF5OiBibG9jazsiIGRhdGEtZWxlbWVudC1pZD0iU3RhcnRFdmVudF8xeTQ1eXV0IiBjbGFzcz0iZGpzLWVsZW1lbnQgZGpzLXNoYXBlIj48ZyBjbGFzcz0iZGpzLXZpc3VhbCI+PGNpcmNsZSBzdHlsZT0ic3Ryb2tlLWxpbmVjYXA6IHJvdW5kOyBzdHJva2UtbGluZWpvaW46IHJvdW5kOyBzdHJva2U6IHJnYigzNCwgMzYsIDQyKTsgc3Ryb2tlLXdpZHRoOiAycHg7IGZpbGw6IHdoaXRlOyBmaWxsLW9wYWNpdHk6IDAuOTU7IiByPSIxOCIgY3k9IjE4IiBjeD0iMTgiLz48L2c+PHJlY3Qgc3R5bGU9ImZpbGw6IG5vbmU7IHN0cm9rZS1vcGFjaXR5OiAwOyBzdHJva2U6IHdoaXRlOyBzdHJva2Utd2lkdGg6IDE1cHg7IiBoZWlnaHQ9IjM2IiB3aWR0aD0iMzYiIHk9IjAiIHg9IjAiIGNsYXNzPSJkanMtaGl0IGRqcy1oaXQtYWxsIi8+PGNpcmNsZSBzdHlsZT0iZmlsbDogbm9uZTsiIGNsYXNzPSJkanMtb3V0bGluZSIgcj0iMjMiIGN5PSIxOCIgY3g9IjE4Ii8+PC9nPjwvZz48ZyBjbGFzcz0iZGpzLWdyb3VwIj48ZyB0cmFuc2Zvcm09Im1hdHJpeCgxIDAgMCAxIDk3MCA0MDApIiBzdHlsZT0iZGlzcGxheTogYmxvY2s7IiBkYXRhLWVsZW1lbnQtaWQ9IkFjdGl2aXR5XzFvN2t1cXEiIGNsYXNzPSJkanMtZWxlbWVudCBkanMtc2hhcGUiPjxnIGNsYXNzPSJkanMtdmlzdWFsIj48cmVjdCBzdHlsZT0ic3Ryb2tlLWxpbmVjYXA6IHJvdW5kOyBzdHJva2UtbGluZWpvaW46IHJvdW5kOyBzdHJva2U6IHJnYigzNCwgMzYsIDQyKTsgc3Ryb2tlLXdpZHRoOiAycHg7IGZpbGw6IHdoaXRlOyBmaWxsLW9wYWNpdHk6IDAuOTU7IiByeT0iMTAiIHJ4PSIxMCIgaGVpZ2h0PSI4MCIgd2lkdGg9IjEwMCIgeT0iMCIgeD0iMCIvPjx0ZXh0IHN0eWxlPSJmb250LWZhbWlseTogQXJpYWwsIHNhbnMtc2VyaWY7IGZvbnQtc2l6ZTogMTJweDsgZm9udC13ZWlnaHQ6IG5vcm1hbDsgZmlsbDogcmdiKDM0LCAzNiwgNDIpOyIgY2xhc3M9ImRqcy1sYWJlbCI+PHRzcGFuIHk9IjM2LjQiIHg9IjI5LjQ3MTY3OTY4NzUiPldhaXQgZm9yIDwvdHNwYW4+PHRzcGFuIHk9IjUwLjgiIHg9IjcuMzQwODIwMzEyNSI+aW52ZXN0bWVudCBvZmZlcjwvdHNwYW4+PC90ZXh0PjwvZz48cmVjdCBzdHlsZT0iZmlsbDogbm9uZTsgc3Ryb2tlLW9wYWNpdHk6IDA7IHN0cm9rZTogd2hpdGU7IHN0cm9rZS13aWR0aDogMTVweDsiIGhlaWdodD0iODAiIHdpZHRoPSIxMDAiIHk9IjAiIHg9IjAiIGNsYXNzPSJkanMtaGl0IGRqcy1oaXQtYWxsIi8+PHJlY3Qgc3R5bGU9ImZpbGw6IG5vbmU7IiBjbGFzcz0iZGpzLW91dGxpbmUiIGhlaWdodD0iOTAiIHdpZHRoPSIxMTAiIHJ4PSIxNCIgeT0iLTUiIHg9Ii01Ii8+PC9nPjwvZz48ZyBjbGFzcz0iZGpzLWdyb3VwIj48ZyB0cmFuc2Zvcm09Im1hdHJpeCgxIDAgMCAxIDExODAgNDAwKSIgc3R5bGU9ImRpc3BsYXk6IGJsb2NrOyIgZGF0YS1lbGVtZW50LWlkPSJBY3Rpdml0eV8wc3I2ZmR4IiBjbGFzcz0iZGpzLWVsZW1lbnQgZGpzLXNoYXBlIj48ZyBjbGFzcz0iZGpzLXZpc3VhbCI+PHJlY3Qgc3R5bGU9InN0cm9rZS1saW5lY2FwOiByb3VuZDsgc3Ryb2tlLWxpbmVqb2luOiByb3VuZDsgc3Ryb2tlOiByZ2IoMzQsIDM2LCA0Mik7IHN0cm9rZS13aWR0aDogMnB4OyBmaWxsOiB3aGl0ZTsgZmlsbC1vcGFjaXR5OiAwLjk1OyIgcnk9IjEwIiByeD0iMTAiIGhlaWdodD0iODAiIHdpZHRoPSIxMDAiIHk9IjAiIHg9IjAiLz48dGV4dCBzdHlsZT0iZm9udC1mYW1pbHk6IEFyaWFsLCBzYW5zLXNlcmlmOyBmb250LXNpemU6IDEycHg7IGZvbnQtd2VpZ2h0OiBub3JtYWw7IGZpbGw6IHJnYigzNCwgMzYsIDQyKTsiIGNsYXNzPSJkanMtbGFiZWwiPjx0c3BhbiB5PSIzNi40IiB4PSIzNS4zMjAzMTI1Ij5PcGVuIDwvdHNwYW4+PHRzcGFuIHk9IjUwLjgiIHg9IjcuMzQwODIwMzEyNSI+aW52ZXN0bWVudCBvZmZlcjwvdHNwYW4+PC90ZXh0PjwvZz48cmVjdCBzdHlsZT0iZmlsbDogbm9uZTsgc3Ryb2tlLW9wYWNpdHk6IDA7IHN0cm9rZTogd2hpdGU7IHN0cm9rZS13aWR0aDogMTVweDsiIGhlaWdodD0iODAiIHdpZHRoPSIxMDAiIHk9IjAiIHg9IjAiIGNsYXNzPSJkanMtaGl0IGRqcy1oaXQtYWxsIi8+PHJlY3Qgc3R5bGU9ImZpbGw6IG5vbmU7IiBjbGFzcz0iZGpzLW91dGxpbmUiIGhlaWdodD0iOTAiIHdpZHRoPSIxMTAiIHJ4PSIxNCIgeT0iLTUiIHg9Ii01Ii8+PC9nPjwvZz48ZyBjbGFzcz0iZGpzLWdyb3VwIj48ZyB0cmFuc2Zvcm09Im1hdHJpeCgxIDAgMCAxIDEzOTUgNDE1KSIgc3R5bGU9ImRpc3BsYXk6IGJsb2NrOyIgZGF0YS1lbGVtZW50LWlkPSJHYXRld2F5XzEycmhidjQiIGNsYXNzPSJkanMtZWxlbWVudCBkanMtc2hhcGUiPjxnIGNsYXNzPSJkanMtdmlzdWFsIj48cG9seWdvbiBzdHlsZT0ic3Ryb2tlLWxpbmVjYXA6IHJvdW5kOyBzdHJva2UtbGluZWpvaW46IHJvdW5kOyBzdHJva2U6IHJnYigzNCwgMzYsIDQyKTsgc3Ryb2tlLXdpZHRoOiAycHg7IGZpbGw6IHdoaXRlOyBmaWxsLW9wYWNpdHk6IDAuOTU7IiBwb2ludHM9IjI1LDAgNTAsMjUgMjUsNTAgMCwyNSIvPjxwYXRoIHN0eWxlPSJmaWxsOiByZ2IoMzQsIDM2LCA0Mik7IHN0cm9rZS1saW5lY2FwOiByb3VuZDsgc3Ryb2tlLWxpbmVqb2luOiByb3VuZDsgc3Ryb2tlOiByZ2IoMzQsIDM2LCA0Mik7IHN0cm9rZS13aWR0aDogMXB4OyIgZD0ibSAxNiwxNSA3LjQyODU3MTQyODU3MTQzLDkuNzE0Mjg1NzE0Mjg1NzE1IC03LjQyODU3MTQyODU3MTQzLDkuNzE0Mjg1NzE0Mjg1NzE1IDMuNDI4NTcxNDI4NTcxNDI5LDAgNS43MTQyODU3MTQyODU3MTUsLTcuNDY0MjI4NTcxNDI4NTcyIDUuNzE0Mjg1NzE0Mjg1NzE1LDcuNDY0MjI4NTcxNDI4NTcyIDMuNDI4NTcxNDI4NTcxNDI5LDAgLTcuNDI4NTcxNDI4NTcxNDMsLTkuNzE0Mjg1NzE0Mjg1NzE1IDcuNDI4NTcxNDI4NTcxNDMsLTkuNzE0Mjg1NzE0Mjg1NzE1IC0zLjQyODU3MTQyODU3MTQyOSwwIC01LjcxNDI4NTcxNDI4NTcxNSw3LjQ2NDIyODU3MTQyODU3MiAtNS43MTQyODU3MTQyODU3MTUsLTcuNDY0MjI4NTcxNDI4NTcyIC0zLjQyODU3MTQyODU3MTQyOSwwIHoiLz48L2c+PHJlY3Qgc3R5bGU9ImZpbGw6IG5vbmU7IHN0cm9rZS1vcGFjaXR5OiAwOyBzdHJva2U6IHdoaXRlOyBzdHJva2Utd2lkdGg6IDE1cHg7IiBoZWlnaHQ9IjUwIiB3aWR0aD0iNTAiIHk9IjAiIHg9IjAiIGNsYXNzPSJkanMtaGl0IGRqcy1oaXQtYWxsIi8+PHJlY3Qgc3R5bGU9InRyYW5zZm9ybS1ib3g6IGZpbGwtYm94OyB0cmFuc2Zvcm06IHJvdGF0ZSg0NWRlZyk7IHRyYW5zZm9ybS1vcmlnaW46IGNlbnRlciBjZW50ZXI7IGZpbGw6IG5vbmU7IiBjbGFzcz0iZGpzLW91dGxpbmUiIGhlaWdodD0iNDYiIHdpZHRoPSI0NiIgcng9IjQiIHk9IjIiIHg9IjIiLz48L2c+PC9nPjxnIGNsYXNzPSJkanMtZ3JvdXAiPjxnIHRyYW5zZm9ybT0ibWF0cml4KDEgMCAwIDEgMTQ1MCAzNDApIiBzdHlsZT0iZGlzcGxheTogYmxvY2s7IiBkYXRhLWVsZW1lbnQtaWQ9IkFjdGl2aXR5XzFweWswcngiIGNsYXNzPSJkanMtZWxlbWVudCBkanMtc2hhcGUiPjxnIGNsYXNzPSJkanMtdmlzdWFsIj48cmVjdCBzdHlsZT0ic3Ryb2tlLWxpbmVjYXA6IHJvdW5kOyBzdHJva2UtbGluZWpvaW46IHJvdW5kOyBzdHJva2U6IHJnYigzNCwgMzYsIDQyKTsgc3Ryb2tlLXdpZHRoOiAycHg7IGZpbGw6IHdoaXRlOyBmaWxsLW9wYWNpdHk6IDAuOTU7IiByeT0iMTAiIHJ4PSIxMCIgaGVpZ2h0PSI4MCIgd2lkdGg9IjEwMCIgeT0iMCIgeD0iMCIvPjx0ZXh0IHN0eWxlPSJmb250LWZhbWlseTogQXJpYWwsIHNhbnMtc2VyaWY7IGZvbnQtc2l6ZTogMTJweDsgZm9udC13ZWlnaHQ6IG5vcm1hbDsgZmlsbDogcmdiKDM0LCAzNiwgNDIpOyIgY2xhc3M9ImRqcy1sYWJlbCI+PHRzcGFuIHk9IjM2LjQiIHg9IjM1LjMyODEyNSI+TWFrZSA8L3RzcGFuPjx0c3BhbiB5PSI1MC44IiB4PSIxOC4wMDc4MTI1Ij5jb3VudGVyb2ZmZXI8L3RzcGFuPjwvdGV4dD48L2c+PHJlY3Qgc3R5bGU9ImZpbGw6IG5vbmU7IHN0cm9rZS1vcGFjaXR5OiAwOyBzdHJva2U6IHdoaXRlOyBzdHJva2Utd2lkdGg6IDE1cHg7IiBoZWlnaHQ9IjgwIiB3aWR0aD0iMTAwIiB5PSIwIiB4PSIwIiBjbGFzcz0iZGpzLWhpdCBkanMtaGl0LWFsbCIvPjxyZWN0IHN0eWxlPSJmaWxsOiBub25lOyIgY2xhc3M9ImRqcy1vdXRsaW5lIiBoZWlnaHQ9IjkwIiB3aWR0aD0iMTEwIiByeD0iMTQiIHk9Ii01IiB4PSItNSIvPjwvZz48L2c+PGcgY2xhc3M9ImRqcy1ncm91cCI+PGcgdHJhbnNmb3JtPSJtYXRyaXgoMSAwIDAgMSAxMzcwIDUyMCkiIHN0eWxlPSJkaXNwbGF5OiBibG9jazsiIGRhdGEtZWxlbWVudC1pZD0iQWN0aXZpdHlfMGR5eXNkdyIgY2xhc3M9ImRqcy1lbGVtZW50IGRqcy1zaGFwZSI+PGcgY2xhc3M9ImRqcy12aXN1YWwiPjxyZWN0IHN0eWxlPSJzdHJva2UtbGluZWNhcDogcm91bmQ7IHN0cm9rZS1saW5lam9pbjogcm91bmQ7IHN0cm9rZTogcmdiKDM0LCAzNiwgNDIpOyBzdHJva2Utd2lkdGg6IDJweDsgZmlsbDogd2hpdGU7IGZpbGwtb3BhY2l0eTogMC45NTsiIHJ5PSIxMCIgcng9IjEwIiBoZWlnaHQ9IjgwIiB3aWR0aD0iMTAwIiB5PSIwIiB4PSIwIi8+PHRleHQgc3R5bGU9ImZvbnQtZmFtaWx5OiBBcmlhbCwgc2Fucy1zZXJpZjsgZm9udC1zaXplOiAxMnB4OyBmb250LXdlaWdodDogbm9ybWFsOyBmaWxsOiByZ2IoMzQsIDM2LCA0Mik7IiBjbGFzcz0iZGpzLWxhYmVsIj48dHNwYW4geT0iNDMuNTk5OTk5OTk5OTk5OTk0IiB4PSIyOS45ODgyODEyNSI+RGVjbGluZTwvdHNwYW4+PC90ZXh0PjwvZz48cmVjdCBzdHlsZT0iZmlsbDogbm9uZTsgc3Ryb2tlLW9wYWNpdHk6IDA7IHN0cm9rZTogd2hpdGU7IHN0cm9rZS13aWR0aDogMTVweDsiIGhlaWdodD0iODAiIHdpZHRoPSIxMDAiIHk9IjAiIHg9IjAiIGNsYXNzPSJkanMtaGl0IGRqcy1oaXQtYWxsIi8+PHJlY3Qgc3R5bGU9ImZpbGw6IG5vbmU7IiBjbGFzcz0iZGpzLW91dGxpbmUiIGhlaWdodD0iOTAiIHdpZHRoPSIxMTAiIHJ4PSIxNCIgeT0iLTUiIHg9Ii01Ii8+PC9nPjwvZz48ZyBjbGFzcz0iZGpzLWdyb3VwIj48ZyB0cmFuc2Zvcm09Im1hdHJpeCgxIDAgMCAxIDE3ODAgNDAwKSIgc3R5bGU9ImRpc3BsYXk6IGJsb2NrOyIgZGF0YS1lbGVtZW50LWlkPSJBY3Rpdml0eV8xN3pxaDVvIiBjbGFzcz0iZGpzLWVsZW1lbnQgZGpzLXNoYXBlIj48ZyBjbGFzcz0iZGpzLXZpc3VhbCI+PHJlY3Qgc3R5bGU9InN0cm9rZS1saW5lY2FwOiByb3VuZDsgc3Ryb2tlLWxpbmVqb2luOiByb3VuZDsgc3Ryb2tlOiByZ2IoMzQsIDM2LCA0Mik7IHN0cm9rZS13aWR0aDogMnB4OyBmaWxsOiB3aGl0ZTsgZmlsbC1vcGFjaXR5OiAwLjk1OyIgcnk9IjEwIiByeD0iMTAiIGhlaWdodD0iODAiIHdpZHRoPSIxMDAiIHk9IjAiIHg9IjAiLz48dGV4dCBzdHlsZT0iZm9udC1mYW1pbHk6IEFyaWFsLCBzYW5zLXNlcmlmOyBmb250LXNpemU6IDEycHg7IGZvbnQtd2VpZ2h0OiBub3JtYWw7IGZpbGw6IHJnYigzNCwgMzYsIDQyKTsiIGNsYXNzPSJkanMtbGFiZWwiPjx0c3BhbiB5PSI0My41OTk5OTk5OTk5OTk5OTQiIHg9IjMxLjY2NTAzOTA2MjUiPkFjY2VwdDwvdHNwYW4+PC90ZXh0PjwvZz48cmVjdCBzdHlsZT0iZmlsbDogbm9uZTsgc3Ryb2tlLW9wYWNpdHk6IDA7IHN0cm9rZTogd2hpdGU7IHN0cm9rZS13aWR0aDogMTVweDsiIGhlaWdodD0iODAiIHdpZHRoPSIxMDAiIHk9IjAiIHg9IjAiIGNsYXNzPSJkanMtaGl0IGRqcy1oaXQtYWxsIi8+PHJlY3Qgc3R5bGU9ImZpbGw6IG5vbmU7IiBjbGFzcz0iZGpzLW91dGxpbmUiIGhlaWdodD0iOTAiIHdpZHRoPSIxMTAiIHJ4PSIxNCIgeT0iLTUiIHg9Ii01Ii8+PC9nPjwvZz48ZyBjbGFzcz0iZGpzLWdyb3VwIj48ZyB0cmFuc2Zvcm09Im1hdHJpeCgxIDAgMCAxIDE5ODAgNDAwKSIgc3R5bGU9ImRpc3BsYXk6IGJsb2NrOyIgZGF0YS1lbGVtZW50LWlkPSJBY3Rpdml0eV8wc2hjbjIwIiBjbGFzcz0iZGpzLWVsZW1lbnQgZGpzLXNoYXBlIj48ZyBjbGFzcz0iZGpzLXZpc3VhbCI+PHJlY3Qgc3R5bGU9InN0cm9rZS1saW5lY2FwOiByb3VuZDsgc3Ryb2tlLWxpbmVqb2luOiByb3VuZDsgc3Ryb2tlOiByZ2IoMzQsIDM2LCA0Mik7IHN0cm9rZS13aWR0aDogMnB4OyBmaWxsOiB3aGl0ZTsgZmlsbC1vcGFjaXR5OiAwLjk1OyIgcnk9IjEwIiByeD0iMTAiIGhlaWdodD0iODAiIHdpZHRoPSIxMDAiIHk9IjAiIHg9IjAiLz48dGV4dCBzdHlsZT0iZm9udC1mYW1pbHk6IEFyaWFsLCBzYW5zLXNlcmlmOyBmb250LXNpemU6IDEycHg7IGZvbnQtd2VpZ2h0OiBub3JtYWw7IGZpbGw6IHJnYigzNCwgMzYsIDQyKTsiIGNsYXNzPSJkanMtbGFiZWwiPjx0c3BhbiB5PSIzNi40IiB4PSIxMy4zMDQ2ODc1Ij5HZW5lcmF0ZSBhbmQgPC90c3Bhbj48dHNwYW4geT0iNTAuOCIgeD0iMjQuNjUyMzQzNzUiPnNpZ24gZG9jczwvdHNwYW4+PC90ZXh0PjwvZz48cmVjdCBzdHlsZT0iZmlsbDogbm9uZTsgc3Ryb2tlLW9wYWNpdHk6IDA7IHN0cm9rZTogd2hpdGU7IHN0cm9rZS13aWR0aDogMTVweDsiIGhlaWdodD0iODAiIHdpZHRoPSIxMDAiIHk9IjAiIHg9IjAiIGNsYXNzPSJkanMtaGl0IGRqcy1oaXQtYWxsIi8+PHJlY3Qgc3R5bGU9ImZpbGw6IG5vbmU7IiBjbGFzcz0iZGpzLW91dGxpbmUiIGhlaWdodD0iOTAiIHdpZHRoPSIxMTAiIHJ4PSIxNCIgeT0iLTUiIHg9Ii01Ii8+PC9nPjwvZz48ZyBjbGFzcz0iZGpzLWdyb3VwIj48ZyB0cmFuc2Zvcm09Im1hdHJpeCgxIDAgMCAxIDIyMTAgNDAwKSIgc3R5bGU9ImRpc3BsYXk6IGJsb2NrOyIgZGF0YS1lbGVtZW50LWlkPSJBY3Rpdml0eV8wZzlkcDh4IiBjbGFzcz0iZGpzLWVsZW1lbnQgZGpzLXNoYXBlIj48ZyBjbGFzcz0iZGpzLXZpc3VhbCI+PHJlY3Qgc3R5bGU9InN0cm9rZS1saW5lY2FwOiByb3VuZDsgc3Ryb2tlLWxpbmVqb2luOiByb3VuZDsgc3Ryb2tlOiByZ2IoMzQsIDM2LCA0Mik7IHN0cm9rZS13aWR0aDogMnB4OyBmaWxsOiB3aGl0ZTsgZmlsbC1vcGFjaXR5OiAwLjk1OyIgcnk9IjEwIiByeD0iMTAiIGhlaWdodD0iODAiIHdpZHRoPSIxMDAiIHk9IjAiIHg9IjAiLz48dGV4dCBzdHlsZT0iZm9udC1mYW1pbHk6IEFyaWFsLCBzYW5zLXNlcmlmOyBmb250LXNpemU6IDEycHg7IGZvbnQtd2VpZ2h0OiBub3JtYWw7IGZpbGw6IHJnYigzNCwgMzYsIDQyKTsiIGNsYXNzPSJkanMtbGFiZWwiPjx0c3BhbiB5PSIzNi40IiB4PSIxMy43NTM5MDYyNSI+T2ZmZXJlZCBmdW5kcyA8L3RzcGFuPjx0c3BhbiB5PSI1MC44IiB4PSIyNy4zMjAzMTI1Ij5yZWNpZXZlZDwvdHNwYW4+PC90ZXh0PjwvZz48cmVjdCBzdHlsZT0iZmlsbDogbm9uZTsgc3Ryb2tlLW9wYWNpdHk6IDA7IHN0cm9rZTogd2hpdGU7IHN0cm9rZS13aWR0aDogMTVweDsiIGhlaWdodD0iODAiIHdpZHRoPSIxMDAiIHk9IjAiIHg9IjAiIGNsYXNzPSJkanMtaGl0IGRqcy1oaXQtYWxsIi8+PHJlY3Qgc3R5bGU9ImZpbGw6IG5vbmU7IiBjbGFzcz0iZGpzLW91dGxpbmUiIGhlaWdodD0iOTAiIHdpZHRoPSIxMTAiIHJ4PSIxNCIgeT0iLTUiIHg9Ii01Ii8+PC9nPjwvZz48ZyBjbGFzcz0iZGpzLWdyb3VwIj48ZyB0cmFuc2Zvcm09Im1hdHJpeCgxIDAgMCAxIDM4MCAyOTApIiBzdHlsZT0iZGlzcGxheTogYmxvY2s7IiBkYXRhLWVsZW1lbnQtaWQ9IkFjdGl2aXR5XzE3Mnk5cDMiIGNsYXNzPSJkanMtZWxlbWVudCBkanMtc2hhcGUiPjxnIGNsYXNzPSJkanMtdmlzdWFsIj48cmVjdCBzdHlsZT0ic3Ryb2tlLWxpbmVjYXA6IHJvdW5kOyBzdHJva2UtbGluZWpvaW46IHJvdW5kOyBzdHJva2U6IHJnYigzNCwgMzYsIDQyKTsgc3Ryb2tlLXdpZHRoOiAycHg7IGZpbGw6IHdoaXRlOyBmaWxsLW9wYWNpdHk6IDAuOTU7IiByeT0iMTAiIHJ4PSIxMCIgaGVpZ2h0PSIzMDAiIHdpZHRoPSI0ODAiIHk9IjAiIHg9IjAiLz48dGV4dCBzdHlsZT0iZm9udC1mYW1pbHk6IEFyaWFsLCBzYW5zLXNlcmlmOyBmb250LXNpemU6IDEycHg7IGZvbnQtd2VpZ2h0OiBub3JtYWw7IGZpbGw6IHJnYigzNCwgMzYsIDQyKTsiIGNsYXNzPSJkanMtbGFiZWwiPjx0c3BhbiB5PSIxNy43OTk5OTk5OTk5OTk5OTciIHg9IjE4My45NzI2NTYyNSI+Q3JlYXRlIHN0YXJ0dXAgcHJvZmlsZTwvdHNwYW4+PC90ZXh0PjwvZz48cmVjdCBzdHlsZT0iZmlsbDogbm9uZTsiIGNsYXNzPSJkanMtb3V0bGluZSIgaGVpZ2h0PSIzMTAiIHdpZHRoPSI0OTAiIHJ4PSIxNCIgeT0iLTUiIHg9Ii01Ii8+PHJlY3Qgc3R5bGU9ImZpbGw6IG5vbmU7IHN0cm9rZS1vcGFjaXR5OiAwOyBzdHJva2U6IHdoaXRlOyBzdHJva2Utd2lkdGg6IDE1cHg7IiBoZWlnaHQ9IjMwMCIgd2lkdGg9IjQ4MCIgeT0iMCIgeD0iMCIgY2xhc3M9ImRqcy1oaXQgZGpzLWhpdC1uby1tb3ZlIi8+PHJlY3Qgc3R5bGU9ImZpbGw6IG5vbmU7IHN0cm9rZS1vcGFjaXR5OiAwOyBzdHJva2U6IHdoaXRlOyBzdHJva2Utd2lkdGg6IDE1cHg7IiBoZWlnaHQ9IjMwMCIgd2lkdGg9IjQ4MCIgeT0iMCIgeD0iMCIgY2xhc3M9ImRqcy1oaXQgZGpzLWhpdC1jbGljay1zdHJva2UiLz48cmVjdCBzdHlsZT0iZmlsbDogbm9uZTsgc3Ryb2tlLW9wYWNpdHk6IDA7IHN0cm9rZTogd2hpdGU7IHN0cm9rZS13aWR0aDogMTVweDsiIGhlaWdodD0iMzAiIHdpZHRoPSI0ODAiIHk9IjAiIHg9IjAiIGNsYXNzPSJkanMtaGl0IGRqcy1oaXQtYWxsIi8+PC9nPjxnIGNsYXNzPSJkanMtY2hpbGRyZW4iPjxnIGNsYXNzPSJkanMtZ3JvdXAiPjxnIHRyYW5zZm9ybT0ibWF0cml4KDEgMCAwIDEgNDIwIDQxMikiIHN0eWxlPSJkaXNwbGF5OiBibG9jazsiIGRhdGEtZWxlbWVudC1pZD0iRXZlbnRfMGQ1bXZtaCIgY2xhc3M9ImRqcy1lbGVtZW50IGRqcy1zaGFwZSI+PGcgY2xhc3M9ImRqcy12aXN1YWwiPjxjaXJjbGUgc3R5bGU9InN0cm9rZS1saW5lY2FwOiByb3VuZDsgc3Ryb2tlLWxpbmVqb2luOiByb3VuZDsgc3Ryb2tlOiByZ2IoMzQsIDM2LCA0Mik7IHN0cm9rZS13aWR0aDogMnB4OyBmaWxsOiB3aGl0ZTsgZmlsbC1vcGFjaXR5OiAwLjk1OyIgcj0iMTgiIGN5PSIxOCIgY3g9IjE4Ii8+PC9nPjxyZWN0IHN0eWxlPSJmaWxsOiBub25lOyBzdHJva2Utb3BhY2l0eTogMDsgc3Ryb2tlOiB3aGl0ZTsgc3Ryb2tlLXdpZHRoOiAxNXB4OyIgaGVpZ2h0PSIzNiIgd2lkdGg9IjM2IiB5PSIwIiB4PSIwIiBjbGFzcz0iZGpzLWhpdCBkanMtaGl0LWFsbCIvPjxjaXJjbGUgc3R5bGU9ImZpbGw6IG5vbmU7IiBjbGFzcz0iZGpzLW91dGxpbmUiIHI9IjIzIiBjeT0iMTgiIGN4PSIxOCIvPjwvZz48L2c+PGcgY2xhc3M9ImRqcy1ncm91cCI+PGcgdHJhbnNmb3JtPSJtYXRyaXgoMSAwIDAgMSA1MDUgNDA1KSIgc3R5bGU9ImRpc3BsYXk6IGJsb2NrOyIgZGF0YS1lbGVtZW50LWlkPSJHYXRld2F5XzB1cHpmaTIiIGNsYXNzPSJkanMtZWxlbWVudCBkanMtc2hhcGUiPjxnIGNsYXNzPSJkanMtdmlzdWFsIj48cG9seWdvbiBzdHlsZT0ic3Ryb2tlLWxpbmVjYXA6IHJvdW5kOyBzdHJva2UtbGluZWpvaW46IHJvdW5kOyBzdHJva2U6IHJnYigzNCwgMzYsIDQyKTsgc3Ryb2tlLXdpZHRoOiAycHg7IGZpbGw6IHdoaXRlOyBmaWxsLW9wYWNpdHk6IDAuOTU7IiBwb2ludHM9IjI1LDAgNTAsMjUgMjUsNTAgMCwyNSIvPjxwYXRoIHN0eWxlPSJmaWxsOiByZ2IoMzQsIDM2LCA0Mik7IHN0cm9rZS1saW5lY2FwOiByb3VuZDsgc3Ryb2tlLWxpbmVqb2luOiByb3VuZDsgc3Ryb2tlOiByZ2IoMzQsIDM2LCA0Mik7IHN0cm9rZS13aWR0aDogMXB4OyIgZD0ibSAxNiwxNSA3LjQyODU3MTQyODU3MTQzLDkuNzE0Mjg1NzE0Mjg1NzE1IC03LjQyODU3MTQyODU3MTQzLDkuNzE0Mjg1NzE0Mjg1NzE1IDMuNDI4NTcxNDI4NTcxNDI5LDAgNS43MTQyODU3MTQyODU3MTUsLTcuNDY0MjI4NTcxNDI4NTcyIDUuNzE0Mjg1NzE0Mjg1NzE1LDcuNDY0MjI4NTcxNDI4NTcyIDMuNDI4NTcxNDI4NTcxNDI5LDAgLTcuNDI4NTcxNDI4NTcxNDMsLTkuNzE0Mjg1NzE0Mjg1NzE1IDcuNDI4NTcxNDI4NTcxNDMsLTkuNzE0Mjg1NzE0Mjg1NzE1IC0zLjQyODU3MTQyODU3MTQyOSwwIC01LjcxNDI4NTcxNDI4NTcxNSw3LjQ2NDIyODU3MTQyODU3MiAtNS43MTQyODU3MTQyODU3MTUsLTcuNDY0MjI4NTcxNDI4NTcyIC0zLjQyODU3MTQyODU3MTQyOSwwIHoiLz48L2c+PHJlY3Qgc3R5bGU9ImZpbGw6IG5vbmU7IHN0cm9rZS1vcGFjaXR5OiAwOyBzdHJva2U6IHdoaXRlOyBzdHJva2Utd2lkdGg6IDE1cHg7IiBoZWlnaHQ9IjUwIiB3aWR0aD0iNTAiIHk9IjAiIHg9IjAiIGNsYXNzPSJkanMtaGl0IGRqcy1oaXQtYWxsIi8+PHJlY3Qgc3R5bGU9InRyYW5zZm9ybS1ib3g6IGZpbGwtYm94OyB0cmFuc2Zvcm06IHJvdGF0ZSg0NWRlZyk7IHRyYW5zZm9ybS1vcmlnaW46IGNlbnRlciBjZW50ZXI7IGZpbGw6IG5vbmU7IiBjbGFzcz0iZGpzLW91dGxpbmUiIGhlaWdodD0iNDYiIHdpZHRoPSI0NiIgcng9IjQiIHk9IjIiIHg9IjIiLz48L2c+PC9nPjxnIGNsYXNzPSJkanMtZ3JvdXAiPjxnIHRyYW5zZm9ybT0ibWF0cml4KDEgMCAwIDEgNjIwIDQ2MCkiIHN0eWxlPSJkaXNwbGF5OiBibG9jazsiIGRhdGEtZWxlbWVudC1pZD0iQWN0aXZpdHlfMGJiNTNxZCIgY2xhc3M9ImRqcy1lbGVtZW50IGRqcy1zaGFwZSI+PGcgY2xhc3M9ImRqcy12aXN1YWwiPjxyZWN0IHN0eWxlPSJzdHJva2UtbGluZWNhcDogcm91bmQ7IHN0cm9rZS1saW5lam9pbjogcm91bmQ7IHN0cm9rZTogcmdiKDM0LCAzNiwgNDIpOyBzdHJva2Utd2lkdGg6IDJweDsgZmlsbDogd2hpdGU7IGZpbGwtb3BhY2l0eTogMC45NTsiIHJ5PSIxMCIgcng9IjEwIiBoZWlnaHQ9IjgwIiB3aWR0aD0iMTAwIiB5PSIwIiB4PSIwIi8+PHRleHQgc3R5bGU9ImZvbnQtZmFtaWx5OiBBcmlhbCwgc2Fucy1zZXJpZjsgZm9udC1zaXplOiAxMnB4OyBmb250LXdlaWdodDogbm9ybWFsOyBmaWxsOiByZ2IoMzQsIDM2LCA0Mik7IiBjbGFzcz0iZGpzLWxhYmVsIj48dHNwYW4geT0iNDMuNTk5OTk5OTk5OTk5OTk0IiB4PSIyMS4zMzMwMDc4MTI1Ij5BZGQgbWV0cmljPC90c3Bhbj48L3RleHQ+PC9nPjxyZWN0IHN0eWxlPSJmaWxsOiBub25lOyBzdHJva2Utb3BhY2l0eTogMDsgc3Ryb2tlOiB3aGl0ZTsgc3Ryb2tlLXdpZHRoOiAxNXB4OyIgaGVpZ2h0PSI4MCIgd2lkdGg9IjEwMCIgeT0iMCIgeD0iMCIgY2xhc3M9ImRqcy1oaXQgZGpzLWhpdC1hbGwiLz48cmVjdCBzdHlsZT0iZmlsbDogbm9uZTsiIGNsYXNzPSJkanMtb3V0bGluZSIgaGVpZ2h0PSI5MCIgd2lkdGg9IjExMCIgcng9IjE0IiB5PSItNSIgeD0iLTUiLz48L2c+PC9nPjxnIGNsYXNzPSJkanMtZ3JvdXAiPjxnIHRyYW5zZm9ybT0ibWF0cml4KDEgMCAwIDEgNjIwIDMyMCkiIHN0eWxlPSJkaXNwbGF5OiBibG9jazsiIGRhdGEtZWxlbWVudC1pZD0iQWN0aXZpdHlfMWRwbG5zNiIgY2xhc3M9ImRqcy1lbGVtZW50IGRqcy1zaGFwZSI+PGcgY2xhc3M9ImRqcy12aXN1YWwiPjxyZWN0IHN0eWxlPSJzdHJva2UtbGluZWNhcDogcm91bmQ7IHN0cm9rZS1saW5lam9pbjogcm91bmQ7IHN0cm9rZTogcmdiKDM0LCAzNiwgNDIpOyBzdHJva2Utd2lkdGg6IDJweDsgZmlsbDogd2hpdGU7IGZpbGwtb3BhY2l0eTogMC45NTsiIHJ5PSIxMCIgcng9IjEwIiBoZWlnaHQ9IjgwIiB3aWR0aD0iMTAwIiB5PSIwIiB4PSIwIi8+PHRleHQgc3R5bGU9ImZvbnQtZmFtaWx5OiBBcmlhbCwgc2Fucy1zZXJpZjsgZm9udC1zaXplOiAxMnB4OyBmb250LXdlaWdodDogbm9ybWFsOyBmaWxsOiByZ2IoMzQsIDM2LCA0Mik7IiBjbGFzcz0iZGpzLWxhYmVsIj48dHNwYW4geT0iMzYuNCIgeD0iMTYuMzE3MzgyODEyNSI+QWRkIHJlbGV2YW50IDwvdHNwYW4+PHRzcGFuIHk9IjUwLjgiIHg9IjIwLjMxNjQwNjI1Ij5pbmZvcm1hdGlvbjwvdHNwYW4+PC90ZXh0PjwvZz48cmVjdCBzdHlsZT0iZmlsbDogbm9uZTsgc3Ryb2tlLW9wYWNpdHk6IDA7IHN0cm9rZTogd2hpdGU7IHN0cm9rZS13aWR0aDogMTVweDsiIGhlaWdodD0iODAiIHdpZHRoPSIxMDAiIHk9IjAiIHg9IjAiIGNsYXNzPSJkanMtaGl0IGRqcy1oaXQtYWxsIi8+PHJlY3Qgc3R5bGU9ImZpbGw6IG5vbmU7IiBjbGFzcz0iZGpzLW91dGxpbmUiIGhlaWdodD0iOTAiIHdpZHRoPSIxMTAiIHJ4PSIxNCIgeT0iLTUiIHg9Ii01Ii8+PC9nPjwvZz48ZyBjbGFzcz0iZGpzLWdyb3VwIj48ZyB0cmFuc2Zvcm09Im1hdHJpeCgxIDAgMCAxIDc3MiA0MTIpIiBzdHlsZT0iZGlzcGxheTogYmxvY2s7IiBkYXRhLWVsZW1lbnQtaWQ9IkV2ZW50XzBzZ2dvZzkiIGNsYXNzPSJkanMtZWxlbWVudCBkanMtc2hhcGUiPjxnIGNsYXNzPSJkanMtdmlzdWFsIj48Y2lyY2xlIHN0eWxlPSJzdHJva2UtbGluZWNhcDogcm91bmQ7IHN0cm9rZS1saW5lam9pbjogcm91bmQ7IHN0cm9rZTogcmdiKDM0LCAzNiwgNDIpOyBzdHJva2Utd2lkdGg6IDRweDsgZmlsbDogd2hpdGU7IGZpbGwtb3BhY2l0eTogMC45NTsiIHI9IjE4IiBjeT0iMTgiIGN4PSIxOCIvPjwvZz48cmVjdCBzdHlsZT0iZmlsbDogbm9uZTsgc3Ryb2tlLW9wYWNpdHk6IDA7IHN0cm9rZTogd2hpdGU7IHN0cm9rZS13aWR0aDogMTVweDsiIGhlaWdodD0iMzYiIHdpZHRoPSIzNiIgeT0iMCIgeD0iMCIgY2xhc3M9ImRqcy1oaXQgZGpzLWhpdC1hbGwiLz48Y2lyY2xlIHN0eWxlPSJmaWxsOiBub25lOyIgY2xhc3M9ImRqcy1vdXRsaW5lIiByPSIyMyIgY3k9IjE4IiBjeD0iMTgiLz48L2c+PC9nPjxnIGNsYXNzPSJkanMtZ3JvdXAiPjxnIHN0eWxlPSJkaXNwbGF5OiBibG9jazsiIGRhdGEtZWxlbWVudC1pZD0iRmxvd18xb29tbDAyIiBjbGFzcz0iZGpzLWVsZW1lbnQgZGpzLWNvbm5lY3Rpb24iPjxnIGNsYXNzPSJkanMtdmlzdWFsIj48cGF0aCBkPSJNNDU2LDQzMEw1MDUsNDMwIiBzdHlsZT0iZmlsbDogbm9uZTsgc3Ryb2tlLWxpbmVjYXA6IHJvdW5kOyBzdHJva2UtbGluZWpvaW46IHJvdW5kOyBzdHJva2U6IHJnYigzNCwgMzYsIDQyKTsgc3Ryb2tlLXdpZHRoOiAycHg7IG1hcmtlci1lbmQ6IHVybCgnI3NlcXVlbmNlZmxvdy1lbmQtd2hpdGUtaHNsXzIyNV8xMF8xNV8tMm9tZ3Jpd20wMW5hcjdtMHlvMmlib3EwbicpOyIgZGF0YS1jb3JuZXItcmFkaXVzPSI1Ii8+PC9nPjxwYXRoIHN0eWxlPSJmaWxsOiBub25lOyBzdHJva2Utb3BhY2l0eTogMDsgc3Ryb2tlOiB3aGl0ZTsgc3Ryb2tlLXdpZHRoOiAxNXB4OyIgY2xhc3M9ImRqcy1oaXQgZGpzLWhpdC1zdHJva2UiIGQ9Ik00NTYsNDMwTDUwNSw0MzAiLz48cmVjdCBzdHlsZT0iZmlsbDogbm9uZTsiIGNsYXNzPSJkanMtb3V0bGluZSIgaGVpZ2h0PSIxMCIgd2lkdGg9IjU5IiByeD0iNCIgeT0iNDI1IiB4PSI0NTEiLz48L2c+PC9nPjxnIGNsYXNzPSJkanMtZ3JvdXAiPjxnIHN0eWxlPSJkaXNwbGF5OiBibG9jazsiIGRhdGEtZWxlbWVudC1pZD0iRmxvd18xOWVuOWtoIiBjbGFzcz0iZGpzLWVsZW1lbnQgZGpzLWNvbm5lY3Rpb24iPjxnIGNsYXNzPSJkanMtdmlzdWFsIj48cGF0aCBkPSJNNjIwLDM2MEw1MzUsMzYwQzUzMi41LDM2MCw1MzAsMzYyLjUsNTMwLDM2NUw1MzAsNDA1IiBzdHlsZT0iZmlsbDogbm9uZTsgc3Ryb2tlLWxpbmVjYXA6IHJvdW5kOyBzdHJva2UtbGluZWpvaW46IHJvdW5kOyBzdHJva2U6IHJnYigzNCwgMzYsIDQyKTsgc3Ryb2tlLXdpZHRoOiAycHg7IG1hcmtlci1lbmQ6IHVybCgnI3NlcXVlbmNlZmxvdy1lbmQtd2hpdGUtaHNsXzIyNV8xMF8xNV8tMm9tZ3Jpd20wMW5hcjdtMHlvMmlib3EwbicpOyIgZGF0YS1jb3JuZXItcmFkaXVzPSI1Ii8+PC9nPjxwYXRoIHN0eWxlPSJmaWxsOiBub25lOyBzdHJva2Utb3BhY2l0eTogMDsgc3Ryb2tlOiB3aGl0ZTsgc3Ryb2tlLXdpZHRoOiAxNXB4OyIgY2xhc3M9ImRqcy1oaXQgZGpzLWhpdC1zdHJva2UiIGQ9Ik02MjAsMzYwTDUzMCwzNjBMNTMwLDQwNSIvPjxyZWN0IHN0eWxlPSJmaWxsOiBub25lOyIgY2xhc3M9ImRqcy1vdXRsaW5lIiBoZWlnaHQ9IjU1IiB3aWR0aD0iMTAwIiByeD0iNCIgeT0iMzU1IiB4PSI1MjUiLz48L2c+PC9nPjxnIGNsYXNzPSJkanMtZ3JvdXAiPjxnIHN0eWxlPSJkaXNwbGF5OiBibG9jazsiIGRhdGEtZWxlbWVudC1pZD0iRmxvd18wNmNhMDNjIiBjbGFzcz0iZGpzLWVsZW1lbnQgZGpzLWNvbm5lY3Rpb24iPjxnIGNsYXNzPSJkanMtdmlzdWFsIj48cGF0aCBkPSJNNjIwLDUwMEw1MzUsNTAwQzUzMi41LDUwMCw1MzAsNDk3LjUsNTMwLDQ5NUw1MzAsNDU1IiBzdHlsZT0iZmlsbDogbm9uZTsgc3Ryb2tlLWxpbmVjYXA6IHJvdW5kOyBzdHJva2UtbGluZWpvaW46IHJvdW5kOyBzdHJva2U6IHJnYigzNCwgMzYsIDQyKTsgc3Ryb2tlLXdpZHRoOiAycHg7IG1hcmtlci1lbmQ6IHVybCgnI3NlcXVlbmNlZmxvdy1lbmQtd2hpdGUtaHNsXzIyNV8xMF8xNV8tMm9tZ3Jpd20wMW5hcjdtMHlvMmlib3EwbicpOyIgZGF0YS1jb3JuZXItcmFkaXVzPSI1Ii8+PC9nPjxwYXRoIHN0eWxlPSJmaWxsOiBub25lOyBzdHJva2Utb3BhY2l0eTogMDsgc3Ryb2tlOiB3aGl0ZTsgc3Ryb2tlLXdpZHRoOiAxNXB4OyIgY2xhc3M9ImRqcy1oaXQgZGpzLWhpdC1zdHJva2UiIGQ9Ik02MjAsNTAwTDUzMCw1MDBMNTMwLDQ1NSIvPjxyZWN0IHN0eWxlPSJmaWxsOiBub25lOyIgY2xhc3M9ImRqcy1vdXRsaW5lIiBoZWlnaHQ9IjU1IiB3aWR0aD0iMTAwIiByeD0iNCIgeT0iNDUwIiB4PSI1MjUiLz48L2c+PC9nPjxnIGNsYXNzPSJkanMtZ3JvdXAiPjxnIHN0eWxlPSJkaXNwbGF5OiBibG9jazsiIGRhdGEtZWxlbWVudC1pZD0iRmxvd18xamQ1bHZkIiBjbGFzcz0iZGpzLWVsZW1lbnQgZGpzLWNvbm5lY3Rpb24iPjxnIGNsYXNzPSJkanMtdmlzdWFsIj48cGF0aCBkPSJNNTMwLDQwNUw1MzAsMzY1QzUzMCwzNjIuNSw1MzIuNSwzNjAsNTM1LDM2MEw2MjAsMzYwIiBzdHlsZT0iZmlsbDogbm9uZTsgc3Ryb2tlLWxpbmVjYXA6IHJvdW5kOyBzdHJva2UtbGluZWpvaW46IHJvdW5kOyBzdHJva2U6IHJnYigzNCwgMzYsIDQyKTsgc3Ryb2tlLXdpZHRoOiAycHg7IG1hcmtlci1lbmQ6IHVybCgnI3NlcXVlbmNlZmxvdy1lbmQtd2hpdGUtaHNsXzIyNV8xMF8xNV8tMm9tZ3Jpd20wMW5hcjdtMHlvMmlib3EwbicpOyIgZGF0YS1jb3JuZXItcmFkaXVzPSI1Ii8+PC9nPjxwYXRoIHN0eWxlPSJmaWxsOiBub25lOyBzdHJva2Utb3BhY2l0eTogMDsgc3Ryb2tlOiB3aGl0ZTsgc3Ryb2tlLXdpZHRoOiAxNXB4OyIgY2xhc3M9ImRqcy1oaXQgZGpzLWhpdC1zdHJva2UiIGQ9Ik01MzAsNDA1TDUzMCwzNjBMNjIwLDM2MCIvPjxyZWN0IHN0eWxlPSJmaWxsOiBub25lOyIgY2xhc3M9ImRqcy1vdXRsaW5lIiBoZWlnaHQ9IjU1IiB3aWR0aD0iMTAwIiByeD0iNCIgeT0iMzU1IiB4PSI1MjUiLz48L2c+PC9nPjxnIGNsYXNzPSJkanMtZ3JvdXAiPjxnIHN0eWxlPSJkaXNwbGF5OiBibG9jazsiIGRhdGEtZWxlbWVudC1pZD0iRmxvd18wOHJrczh6IiBjbGFzcz0iZGpzLWVsZW1lbnQgZGpzLWNvbm5lY3Rpb24iPjxnIGNsYXNzPSJkanMtdmlzdWFsIj48cGF0aCBkPSJNNTMwLDQ1NUw1MzAsNDk1QzUzMCw0OTcuNSw1MzIuNSw1MDAsNTM1LDUwMEw2MjAsNTAwIiBzdHlsZT0iZmlsbDogbm9uZTsgc3Ryb2tlLWxpbmVjYXA6IHJvdW5kOyBzdHJva2UtbGluZWpvaW46IHJvdW5kOyBzdHJva2U6IHJnYigzNCwgMzYsIDQyKTsgc3Ryb2tlLXdpZHRoOiAycHg7IG1hcmtlci1lbmQ6IHVybCgnI3NlcXVlbmNlZmxvdy1lbmQtd2hpdGUtaHNsXzIyNV8xMF8xNV8tMm9tZ3Jpd20wMW5hcjdtMHlvMmlib3EwbicpOyIgZGF0YS1jb3JuZXItcmFkaXVzPSI1Ii8+PC9nPjxwYXRoIHN0eWxlPSJmaWxsOiBub25lOyBzdHJva2Utb3BhY2l0eTogMDsgc3Ryb2tlOiB3aGl0ZTsgc3Ryb2tlLXdpZHRoOiAxNXB4OyIgY2xhc3M9ImRqcy1oaXQgZGpzLWhpdC1zdHJva2UiIGQ9Ik01MzAsNDU1TDUzMCw1MDBMNjIwLDUwMCIvPjxyZWN0IHN0eWxlPSJmaWxsOiBub25lOyIgY2xhc3M9ImRqcy1vdXRsaW5lIiBoZWlnaHQ9IjU1IiB3aWR0aD0iMTAwIiByeD0iNCIgeT0iNDUwIiB4PSI1MjUiLz48L2c+PC9nPjxnIGNsYXNzPSJkanMtZ3JvdXAiPjxnIHN0eWxlPSJkaXNwbGF5OiBibG9jazsiIGRhdGEtZWxlbWVudC1pZD0iRmxvd18wOWVkZjBnIiBjbGFzcz0iZGpzLWVsZW1lbnQgZGpzLWNvbm5lY3Rpb24iPjxnIGNsYXNzPSJkanMtdmlzdWFsIj48cGF0aCBkPSJNNTU1LDQzMEw3NzIsNDMwIiBzdHlsZT0iZmlsbDogbm9uZTsgc3Ryb2tlLWxpbmVjYXA6IHJvdW5kOyBzdHJva2UtbGluZWpvaW46IHJvdW5kOyBzdHJva2U6IHJnYigzNCwgMzYsIDQyKTsgc3Ryb2tlLXdpZHRoOiAycHg7IG1hcmtlci1lbmQ6IHVybCgnI3NlcXVlbmNlZmxvdy1lbmQtd2hpdGUtaHNsXzIyNV8xMF8xNV8tMm9tZ3Jpd20wMW5hcjdtMHlvMmlib3EwbicpOyIgZGF0YS1jb3JuZXItcmFkaXVzPSI1Ii8+PC9nPjxwYXRoIHN0eWxlPSJmaWxsOiBub25lOyBzdHJva2Utb3BhY2l0eTogMDsgc3Ryb2tlOiB3aGl0ZTsgc3Ryb2tlLXdpZHRoOiAxNXB4OyIgY2xhc3M9ImRqcy1oaXQgZGpzLWhpdC1zdHJva2UiIGQ9Ik01NTUsNDMwTDc3Miw0MzAiLz48cmVjdCBzdHlsZT0iZmlsbDogbm9uZTsiIGNsYXNzPSJkanMtb3V0bGluZSIgaGVpZ2h0PSIxMCIgd2lkdGg9IjIyNyIgcng9IjQiIHk9IjQyNSIgeD0iNTUwIi8+PC9nPjwvZz48L2c+PC9nPjxnIGNsYXNzPSJkanMtZ3JvdXAiPjxnIHN0eWxlPSJkaXNwbGF5OiBibG9jazsiIGRhdGEtZWxlbWVudC1pZD0iRmxvd18xcWMzM3d3IiBjbGFzcz0iZGpzLWVsZW1lbnQgZGpzLWNvbm5lY3Rpb24iPjxnIGNsYXNzPSJkanMtdmlzdWFsIj48cGF0aCBkPSJNMTc4LDQ0MEwzODAsNDQwIiBzdHlsZT0iZmlsbDogbm9uZTsgc3Ryb2tlLWxpbmVjYXA6IHJvdW5kOyBzdHJva2UtbGluZWpvaW46IHJvdW5kOyBzdHJva2U6IHJnYigzNCwgMzYsIDQyKTsgc3Ryb2tlLXdpZHRoOiAycHg7IG1hcmtlci1lbmQ6IHVybCgnI3NlcXVlbmNlZmxvdy1lbmQtd2hpdGUtaHNsXzIyNV8xMF8xNV8tMm9tZ3Jpd20wMW5hcjdtMHlvMmlib3EwbicpOyIgZGF0YS1jb3JuZXItcmFkaXVzPSI1Ii8+PC9nPjxwYXRoIHN0eWxlPSJmaWxsOiBub25lOyBzdHJva2Utb3BhY2l0eTogMDsgc3Ryb2tlOiB3aGl0ZTsgc3Ryb2tlLXdpZHRoOiAxNXB4OyIgY2xhc3M9ImRqcy1oaXQgZGpzLWhpdC1zdHJva2UiIGQ9Ik0xNzgsNDQwTDM4MCw0NDAiLz48cmVjdCBzdHlsZT0iZmlsbDogbm9uZTsiIGNsYXNzPSJkanMtb3V0bGluZSIgaGVpZ2h0PSIxMCIgd2lkdGg9IjIxMiIgcng9IjQiIHk9IjQzNSIgeD0iMTczIi8+PC9nPjwvZz48ZyBjbGFzcz0iZGpzLWdyb3VwIj48ZyBzdHlsZT0iZGlzcGxheTogYmxvY2s7IiBkYXRhLWVsZW1lbnQtaWQ9IkZsb3dfMXF4YmgwOSIgY2xhc3M9ImRqcy1lbGVtZW50IGRqcy1jb25uZWN0aW9uIj48ZyBjbGFzcz0iZGpzLXZpc3VhbCI+PHBhdGggZD0iTTg2MCw0NDBMOTcwLDQ0MCIgc3R5bGU9ImZpbGw6IG5vbmU7IHN0cm9rZS1saW5lY2FwOiByb3VuZDsgc3Ryb2tlLWxpbmVqb2luOiByb3VuZDsgc3Ryb2tlOiByZ2IoMzQsIDM2LCA0Mik7IHN0cm9rZS13aWR0aDogMnB4OyBtYXJrZXItZW5kOiB1cmwoJyNzZXF1ZW5jZWZsb3ctZW5kLXdoaXRlLWhzbF8yMjVfMTBfMTVfLTJvbWdyaXdtMDFuYXI3bTB5bzJpYm9xMG4nKTsiIGRhdGEtY29ybmVyLXJhZGl1cz0iNSIvPjwvZz48cGF0aCBzdHlsZT0iZmlsbDogbm9uZTsgc3Ryb2tlLW9wYWNpdHk6IDA7IHN0cm9rZTogd2hpdGU7IHN0cm9rZS13aWR0aDogMTVweDsiIGNsYXNzPSJkanMtaGl0IGRqcy1oaXQtc3Ryb2tlIiBkPSJNODYwLDQ0MEw5NzAsNDQwIi8+PHJlY3Qgc3R5bGU9ImZpbGw6IG5vbmU7IiBjbGFzcz0iZGpzLW91dGxpbmUiIGhlaWdodD0iMTAiIHdpZHRoPSIxMjAiIHJ4PSI0IiB5PSI0MzUiIHg9Ijg1NSIvPjwvZz48L2c+PGcgY2xhc3M9ImRqcy1ncm91cCI+PGcgc3R5bGU9ImRpc3BsYXk6IGJsb2NrOyIgZGF0YS1lbGVtZW50LWlkPSJGbG93XzF2ZG9odjEiIGNsYXNzPSJkanMtZWxlbWVudCBkanMtY29ubmVjdGlvbiI+PGcgY2xhc3M9ImRqcy12aXN1YWwiPjxwYXRoIGQ9Ik0xMDcwLDQ0MEwxMTgwLDQ0MCIgc3R5bGU9ImZpbGw6IG5vbmU7IHN0cm9rZS1saW5lY2FwOiByb3VuZDsgc3Ryb2tlLWxpbmVqb2luOiByb3VuZDsgc3Ryb2tlOiByZ2IoMzQsIDM2LCA0Mik7IHN0cm9rZS13aWR0aDogMnB4OyBtYXJrZXItZW5kOiB1cmwoJyNzZXF1ZW5jZWZsb3ctZW5kLXdoaXRlLWhzbF8yMjVfMTBfMTVfLTJvbWdyaXdtMDFuYXI3bTB5bzJpYm9xMG4nKTsiIGRhdGEtY29ybmVyLXJhZGl1cz0iNSIvPjwvZz48cGF0aCBzdHlsZT0iZmlsbDogbm9uZTsgc3Ryb2tlLW9wYWNpdHk6IDA7IHN0cm9rZTogd2hpdGU7IHN0cm9rZS13aWR0aDogMTVweDsiIGNsYXNzPSJkanMtaGl0IGRqcy1oaXQtc3Ryb2tlIiBkPSJNMTA3MCw0NDBMMTE4MCw0NDAiLz48cmVjdCBzdHlsZT0iZmlsbDogbm9uZTsiIGNsYXNzPSJkanMtb3V0bGluZSIgaGVpZ2h0PSIxMCIgd2lkdGg9IjEyMCIgcng9IjQiIHk9IjQzNSIgeD0iMTA2NSIvPjwvZz48L2c+PGcgY2xhc3M9ImRqcy1ncm91cCI+PGcgc3R5bGU9ImRpc3BsYXk6IGJsb2NrOyIgZGF0YS1lbGVtZW50LWlkPSJGbG93XzB6NmtmN2giIGNsYXNzPSJkanMtZWxlbWVudCBkanMtY29ubmVjdGlvbiI+PGcgY2xhc3M9ImRqcy12aXN1YWwiPjxwYXRoIGQ9Ik0xMjgwLDQ0MEwxMzk1LDQ0MCIgc3R5bGU9ImZpbGw6IG5vbmU7IHN0cm9rZS1saW5lY2FwOiByb3VuZDsgc3Ryb2tlLWxpbmVqb2luOiByb3VuZDsgc3Ryb2tlOiByZ2IoMzQsIDM2LCA0Mik7IHN0cm9rZS13aWR0aDogMnB4OyBtYXJrZXItZW5kOiB1cmwoJyNzZXF1ZW5jZWZsb3ctZW5kLXdoaXRlLWhzbF8yMjVfMTBfMTVfLTJvbWdyaXdtMDFuYXI3bTB5bzJpYm9xMG4nKTsiIGRhdGEtY29ybmVyLXJhZGl1cz0iNSIvPjwvZz48cGF0aCBzdHlsZT0iZmlsbDogbm9uZTsgc3Ryb2tlLW9wYWNpdHk6IDA7IHN0cm9rZTogd2hpdGU7IHN0cm9rZS13aWR0aDogMTVweDsiIGNsYXNzPSJkanMtaGl0IGRqcy1oaXQtc3Ryb2tlIiBkPSJNMTI4MCw0NDBMMTM5NSw0NDAiLz48cmVjdCBzdHlsZT0iZmlsbDogbm9uZTsiIGNsYXNzPSJkanMtb3V0bGluZSIgaGVpZ2h0PSIxMCIgd2lkdGg9IjEyNSIgcng9IjQiIHk9IjQzNSIgeD0iMTI3NSIvPjwvZz48L2c+PGcgY2xhc3M9ImRqcy1ncm91cCI+PGcgc3R5bGU9ImRpc3BsYXk6IGJsb2NrOyIgZGF0YS1lbGVtZW50LWlkPSJGbG93XzB3NGhzMmciIGNsYXNzPSJkanMtZWxlbWVudCBkanMtY29ubmVjdGlvbiI+PGcgY2xhc3M9ImRqcy12aXN1YWwiPjxwYXRoIGQ9Ik0xNDQ1LDQ0MEwxNzgwLDQ0MCIgc3R5bGU9ImZpbGw6IG5vbmU7IHN0cm9rZS1saW5lY2FwOiByb3VuZDsgc3Ryb2tlLWxpbmVqb2luOiByb3VuZDsgc3Ryb2tlOiByZ2IoMzQsIDM2LCA0Mik7IHN0cm9rZS13aWR0aDogMnB4OyBtYXJrZXItZW5kOiB1cmwoJyNzZXF1ZW5jZWZsb3ctZW5kLXdoaXRlLWhzbF8yMjVfMTBfMTVfLTJvbWdyaXdtMDFuYXI3bTB5bzJpYm9xMG4nKTsiIGRhdGEtY29ybmVyLXJhZGl1cz0iNSIvPjwvZz48cGF0aCBzdHlsZT0iZmlsbDogbm9uZTsgc3Ryb2tlLW9wYWNpdHk6IDA7IHN0cm9rZTogd2hpdGU7IHN0cm9rZS13aWR0aDogMTVweDsiIGNsYXNzPSJkanMtaGl0IGRqcy1oaXQtc3Ryb2tlIiBkPSJNMTQ0NSw0NDBMMTc4MCw0NDAiLz48cmVjdCBzdHlsZT0iZmlsbDogbm9uZTsiIGNsYXNzPSJkanMtb3V0bGluZSIgaGVpZ2h0PSIxMCIgd2lkdGg9IjM0NSIgcng9IjQiIHk9IjQzNSIgeD0iMTQ0MCIvPjwvZz48L2c+PGcgY2xhc3M9ImRqcy1ncm91cCI+PGcgc3R5bGU9ImRpc3BsYXk6IGJsb2NrOyIgZGF0YS1lbGVtZW50LWlkPSJGbG93XzFpNzNnd3AiIGNsYXNzPSJkanMtZWxlbWVudCBkanMtY29ubmVjdGlvbiI+PGcgY2xhc3M9ImRqcy12aXN1YWwiPjxwYXRoIGQ9Ik0xNDIwLDQxNUwxNDIwLDM4NUMxNDIwLDM4Mi41LDE0MjIuNSwzODAsMTQyNSwzODBMMTQ1MCwzODAiIHN0eWxlPSJmaWxsOiBub25lOyBzdHJva2UtbGluZWNhcDogcm91bmQ7IHN0cm9rZS1saW5lam9pbjogcm91bmQ7IHN0cm9rZTogcmdiKDM0LCAzNiwgNDIpOyBzdHJva2Utd2lkdGg6IDJweDsgbWFya2VyLWVuZDogdXJsKCcjc2VxdWVuY2VmbG93LWVuZC13aGl0ZS1oc2xfMjI1XzEwXzE1Xy0yb21ncml3bTAxbmFyN20weW8yaWJvcTBuJyk7IiBkYXRhLWNvcm5lci1yYWRpdXM9IjUiLz48L2c+PHBhdGggc3R5bGU9ImZpbGw6IG5vbmU7IHN0cm9rZS1vcGFjaXR5OiAwOyBzdHJva2U6IHdoaXRlOyBzdHJva2Utd2lkdGg6IDE1cHg7IiBjbGFzcz0iZGpzLWhpdCBkanMtaGl0LXN0cm9rZSIgZD0iTTE0MjAsNDE1TDE0MjAsMzgwTDE0NTAsMzgwIi8+PHJlY3Qgc3R5bGU9ImZpbGw6IG5vbmU7IiBjbGFzcz0iZGpzLW91dGxpbmUiIGhlaWdodD0iNDUiIHdpZHRoPSI0MCIgcng9IjQiIHk9IjM3NSIgeD0iMTQxNSIvPjwvZz48L2c+PGcgY2xhc3M9ImRqcy1ncm91cCI+PGcgc3R5bGU9ImRpc3BsYXk6IGJsb2NrOyIgZGF0YS1lbGVtZW50LWlkPSJGbG93XzB0dnJ1dHQiIGNsYXNzPSJkanMtZWxlbWVudCBkanMtY29ubmVjdGlvbiI+PGcgY2xhc3M9ImRqcy12aXN1YWwiPjxwYXRoIGQ9Ik0xNDIwLDQ2NUwxNDIwLDUyMCIgc3R5bGU9ImZpbGw6IG5vbmU7IHN0cm9rZS1saW5lY2FwOiByb3VuZDsgc3Ryb2tlLWxpbmVqb2luOiByb3VuZDsgc3Ryb2tlOiByZ2IoMzQsIDM2LCA0Mik7IHN0cm9rZS13aWR0aDogMnB4OyBtYXJrZXItZW5kOiB1cmwoJyNzZXF1ZW5jZWZsb3ctZW5kLXdoaXRlLWhzbF8yMjVfMTBfMTVfLTJvbWdyaXdtMDFuYXI3bTB5bzJpYm9xMG4nKTsiIGRhdGEtY29ybmVyLXJhZGl1cz0iNSIvPjwvZz48cGF0aCBzdHlsZT0iZmlsbDogbm9uZTsgc3Ryb2tlLW9wYWNpdHk6IDA7IHN0cm9rZTogd2hpdGU7IHN0cm9rZS13aWR0aDogMTVweDsiIGNsYXNzPSJkanMtaGl0IGRqcy1oaXQtc3Ryb2tlIiBkPSJNMTQyMCw0NjVMMTQyMCw1MjAiLz48cmVjdCBzdHlsZT0iZmlsbDogbm9uZTsiIGNsYXNzPSJkanMtb3V0bGluZSIgaGVpZ2h0PSI2NSIgd2lkdGg9IjEwIiByeD0iNCIgeT0iNDYwIiB4PSIxNDE1Ii8+PC9nPjwvZz48ZyBjbGFzcz0iZGpzLWdyb3VwIj48ZyBzdHlsZT0iZGlzcGxheTogYmxvY2s7IiBkYXRhLWVsZW1lbnQtaWQ9IkZsb3dfMXViNDdzbiIgY2xhc3M9ImRqcy1lbGVtZW50IGRqcy1jb25uZWN0aW9uIj48ZyBjbGFzcz0iZGpzLXZpc3VhbCI+PHBhdGggZD0iTTE4ODAsNDQwTDE5ODAsNDQwIiBzdHlsZT0iZmlsbDogbm9uZTsgc3Ryb2tlLWxpbmVjYXA6IHJvdW5kOyBzdHJva2UtbGluZWpvaW46IHJvdW5kOyBzdHJva2U6IHJnYigzNCwgMzYsIDQyKTsgc3Ryb2tlLXdpZHRoOiAycHg7IG1hcmtlci1lbmQ6IHVybCgnI3NlcXVlbmNlZmxvdy1lbmQtd2hpdGUtaHNsXzIyNV8xMF8xNV8tMm9tZ3Jpd20wMW5hcjdtMHlvMmlib3EwbicpOyIgZGF0YS1jb3JuZXItcmFkaXVzPSI1Ii8+PC9nPjxwYXRoIHN0eWxlPSJmaWxsOiBub25lOyBzdHJva2Utb3BhY2l0eTogMDsgc3Ryb2tlOiB3aGl0ZTsgc3Ryb2tlLXdpZHRoOiAxNXB4OyIgY2xhc3M9ImRqcy1oaXQgZGpzLWhpdC1zdHJva2UiIGQ9Ik0xODgwLDQ0MEwxOTgwLDQ0MCIvPjxyZWN0IHN0eWxlPSJmaWxsOiBub25lOyIgY2xhc3M9ImRqcy1vdXRsaW5lIiBoZWlnaHQ9IjEwIiB3aWR0aD0iMTEwIiByeD0iNCIgeT0iNDM1IiB4PSIxODc1Ii8+PC9nPjwvZz48L2c+PC9nPjxnIGNsYXNzPSJkanMtZ3JvdXAiPjxnIHRyYW5zZm9ybT0ibWF0cml4KDEgMCAwIDEgNzAgLTQwMCkiIHN0eWxlPSJkaXNwbGF5OiBibG9jazsiIGRhdGEtZWxlbWVudC1pZD0iUGFydGljaXBhbnRfMG90cmZhdiIgY2xhc3M9ImRqcy1lbGVtZW50IGRqcy1zaGFwZSI+PGcgY2xhc3M9ImRqcy12aXN1YWwiPjxyZWN0IHN0eWxlPSJzdHJva2UtbGluZWNhcDogcm91bmQ7IHN0cm9rZS1saW5lam9pbjogcm91bmQ7IHN0cm9rZTogcmdiKDM0LCAzNiwgNDIpOyBzdHJva2Utd2lkdGg6IDEuNXB4OyBmaWxsOiB3aGl0ZTsgZmlsbC1vcGFjaXR5OiAwLjk1OyIgcnk9IjAiIHJ4PSIwIiBoZWlnaHQ9IjYwIiB3aWR0aD0iMjMxMCIgeT0iMCIgeD0iMCIvPjx0ZXh0IHN0eWxlPSJmb250LWZhbWlseTogQXJpYWwsIHNhbnMtc2VyaWY7IGZvbnQtc2l6ZTogMTJweDsgZm9udC13ZWlnaHQ6IG5vcm1hbDsgZmlsbDogcmdiKDM0LCAzNiwgNDIpOyIgY2xhc3M9ImRqcy1sYWJlbCI+PHRzcGFuIHk9IjMzLjYiIHg9IjEwOTIuNjM2NzE4NzUiPlN0YXJ0dXAgaW52ZXN0bWVudCBmbG93PC90c3Bhbj48L3RleHQ+PC9nPjxyZWN0IHN0eWxlPSJmaWxsOiBub25lOyIgY2xhc3M9ImRqcy1vdXRsaW5lIiBoZWlnaHQ9IjcwIiB3aWR0aD0iMjMyMCIgcng9IjQiIHk9Ii01IiB4PSItNSIvPjxyZWN0IHN0eWxlPSJmaWxsOiBub25lOyBzdHJva2Utb3BhY2l0eTogMDsgc3Ryb2tlOiB3aGl0ZTsgc3Ryb2tlLXdpZHRoOiAxNXB4OyIgaGVpZ2h0PSI2MCIgd2lkdGg9IjIzMTAiIHk9IjAiIHg9IjAiIGNsYXNzPSJkanMtaGl0IGRqcy1oaXQtYWxsIi8+PC9nPjwvZz48ZyBjbGFzcz0iZGpzLWdyb3VwIj48ZyBzdHlsZT0iZGlzcGxheTogYmxvY2s7IiBkYXRhLWVsZW1lbnQtaWQ9IkZsb3dfMW05d3h0cSIgY2xhc3M9ImRqcy1lbGVtZW50IGRqcy1jb25uZWN0aW9uIj48ZyBjbGFzcz0iZGpzLXZpc3VhbCI+PHBhdGggZD0iTTEzNjAsMTBMMTM2MCw5NUMxMzYwLDk3LjUsMTM1Ny41LDEwMCwxMzU1LDEwMEwxMjQ1LDEwMEMxMjQyLjUsMTAwLDEyNDAsMTAyLjUsMTI0MCwxMDVMMTI0MCw0MDAiIHN0eWxlPSJmaWxsOiBub25lOyBzdHJva2UtbGluZWNhcDogcm91bmQ7IHN0cm9rZS1saW5lam9pbjogcm91bmQ7IHN0cm9rZTogcmdiKDM0LCAzNiwgNDIpOyBzdHJva2Utd2lkdGg6IDEuNXB4OyBtYXJrZXItZW5kOiB1cmwoJyNtZXNzYWdlZmxvdy1lbmQtd2hpdGUtaHNsXzIyNV8xMF8xNV8tMm9tZ3Jpd20wMW5hcjdtMHlvMmlib3EwbicpOyBtYXJrZXItc3RhcnQ6IHVybCgnI21lc3NhZ2VmbG93LXN0YXJ0LXdoaXRlLWhzbF8yMjVfMTBfMTVfLTJvbWdyaXdtMDFuYXI3bTB5bzJpYm9xMG4nKTsgc3Ryb2tlLWRhc2hhcnJheTogMTAsIDExOyIgZGF0YS1jb3JuZXItcmFkaXVzPSI1Ii8+PC9nPjxwYXRoIHN0eWxlPSJmaWxsOiBub25lOyBzdHJva2Utb3BhY2l0eTogMDsgc3Ryb2tlOiB3aGl0ZTsgc3Ryb2tlLXdpZHRoOiAxNXB4OyIgY2xhc3M9ImRqcy1oaXQgZGpzLWhpdC1zdHJva2UiIGQ9Ik0xMzYwLDEwTDEzNjAsMTAwTDEyNDAsMTAwTDEyNDAsNDAwIi8+PHJlY3Qgc3R5bGU9ImZpbGw6IG5vbmU7IiBjbGFzcz0iZGpzLW91dGxpbmUiIGhlaWdodD0iNDAwIiB3aWR0aD0iMTMwIiByeD0iNCIgeT0iNSIgeD0iMTIzNSIvPjwvZz48L2c+PGcgY2xhc3M9ImRqcy1ncm91cCI+PGcgc3R5bGU9ImRpc3BsYXk6IGJsb2NrOyIgZGF0YS1lbGVtZW50LWlkPSJGbG93XzF0b2hneGYiIGNsYXNzPSJkanMtZWxlbWVudCBkanMtY29ubmVjdGlvbiI+PGcgY2xhc3M9ImRqcy12aXN1YWwiPjxwYXRoIGQ9Ik0xNTAwLDM0MEwxNTAwLC0xMDAiIHN0eWxlPSJmaWxsOiBub25lOyBzdHJva2UtbGluZWNhcDogcm91bmQ7IHN0cm9rZS1saW5lam9pbjogcm91bmQ7IHN0cm9rZTogcmdiKDM0LCAzNiwgNDIpOyBzdHJva2Utd2lkdGg6IDEuNXB4OyBtYXJrZXItZW5kOiB1cmwoJyNtZXNzYWdlZmxvdy1lbmQtd2hpdGUtaHNsXzIyNV8xMF8xNV8tMm9tZ3Jpd20wMW5hcjdtMHlvMmlib3EwbicpOyBtYXJrZXItc3RhcnQ6IHVybCgnI21lc3NhZ2VmbG93LXN0YXJ0LXdoaXRlLWhzbF8yMjVfMTBfMTVfLTJvbWdyaXdtMDFuYXI3bTB5bzJpYm9xMG4nKTsgc3Ryb2tlLWRhc2hhcnJheTogMTAsIDExOyIgZGF0YS1jb3JuZXItcmFkaXVzPSI1Ii8+PC9nPjxwYXRoIHN0eWxlPSJmaWxsOiBub25lOyBzdHJva2Utb3BhY2l0eTogMDsgc3Ryb2tlOiB3aGl0ZTsgc3Ryb2tlLXdpZHRoOiAxNXB4OyIgY2xhc3M9ImRqcy1oaXQgZGpzLWhpdC1zdHJva2UiIGQ9Ik0xNTAwLDM0MEwxNTAwLC0xMDAiLz48cmVjdCBzdHlsZT0iZmlsbDogbm9uZTsiIGNsYXNzPSJkanMtb3V0bGluZSIgaGVpZ2h0PSI0NTAiIHdpZHRoPSIxMCIgcng9IjQiIHk9Ii0xMDUiIHg9IjE0OTUiLz48L2c+PC9nPjxnIGNsYXNzPSJkanMtZ3JvdXAiPjxnIHN0eWxlPSJkaXNwbGF5OiBibG9jazsiIGRhdGEtZWxlbWVudC1pZD0iRmxvd18xMjFwdW1mIiBjbGFzcz0iZGpzLWVsZW1lbnQgZGpzLWNvbm5lY3Rpb24iPjxnIGNsYXNzPSJkanMtdmlzdWFsIj48cGF0aCBkPSJNMTYzMCwzMEwxNjMwLDk1QzE2MzAsOTcuNSwxNjI3LjUsMTAwLDE2MjUsMTAwTDEyNDUsMTAwQzEyNDIuNSwxMDAsMTI0MCwxMDIuNSwxMjQwLDEwNUwxMjQwLDQwMCIgc3R5bGU9ImZpbGw6IG5vbmU7IHN0cm9rZS1saW5lY2FwOiByb3VuZDsgc3Ryb2tlLWxpbmVqb2luOiByb3VuZDsgc3Ryb2tlOiByZ2IoMzQsIDM2LCA0Mik7IHN0cm9rZS13aWR0aDogMS41cHg7IG1hcmtlci1lbmQ6IHVybCgnI21lc3NhZ2VmbG93LWVuZC13aGl0ZS1oc2xfMjI1XzEwXzE1Xy0yb21ncml3bTAxbmFyN20weW8yaWJvcTBuJyk7IG1hcmtlci1zdGFydDogdXJsKCcjbWVzc2FnZWZsb3ctc3RhcnQtd2hpdGUtaHNsXzIyNV8xMF8xNV8tMm9tZ3Jpd20wMW5hcjdtMHlvMmlib3EwbicpOyBzdHJva2UtZGFzaGFycmF5OiAxMCwgMTE7IiBkYXRhLWNvcm5lci1yYWRpdXM9IjUiLz48L2c+PHBhdGggc3R5bGU9ImZpbGw6IG5vbmU7IHN0cm9rZS1vcGFjaXR5OiAwOyBzdHJva2U6IHdoaXRlOyBzdHJva2Utd2lkdGg6IDE1cHg7IiBjbGFzcz0iZGpzLWhpdCBkanMtaGl0LXN0cm9rZSIgZD0iTTE2MzAsMzBMMTYzMCwxMDBMMTI0MCwxMDBMMTI0MCw0MDAiLz48cmVjdCBzdHlsZT0iZmlsbDogbm9uZTsiIGNsYXNzPSJkanMtb3V0bGluZSIgaGVpZ2h0PSIzODAiIHdpZHRoPSI0MDAiIHJ4PSI0IiB5PSIyNSIgeD0iMTIzNSIvPjwvZz48L2c+PGcgY2xhc3M9ImRqcy1ncm91cCI+PGcgc3R5bGU9ImRpc3BsYXk6IGJsb2NrOyIgZGF0YS1lbGVtZW50LWlkPSJGbG93XzA4aGN6bWQiIGNsYXNzPSJkanMtZWxlbWVudCBkanMtY29ubmVjdGlvbiI+PGcgY2xhc3M9ImRqcy12aXN1YWwiPjxwYXRoIGQ9Ik0xODMwLDQwMEwxODMwLDEyNUMxODMwLDEyMi41LDE4MzIuNSwxMjAsMTgzNSwxMjBMMjAzNSwxMjBDMjAzNy41LDEyMCwyMDQwLDExNy41LDIwNDAsMTE1TDIwNDAsLTEwMCIgc3R5bGU9ImZpbGw6IG5vbmU7IHN0cm9rZS1saW5lY2FwOiByb3VuZDsgc3Ryb2tlLWxpbmVqb2luOiByb3VuZDsgc3Ryb2tlOiByZ2IoMzQsIDM2LCA0Mik7IHN0cm9rZS13aWR0aDogMS41cHg7IG1hcmtlci1lbmQ6IHVybCgnI21lc3NhZ2VmbG93LWVuZC13aGl0ZS1oc2xfMjI1XzEwXzE1Xy0yb21ncml3bTAxbmFyN20weW8yaWJvcTBuJyk7IG1hcmtlci1zdGFydDogdXJsKCcjbWVzc2FnZWZsb3ctc3RhcnQtd2hpdGUtaHNsXzIyNV8xMF8xNV8tMm9tZ3Jpd20wMW5hcjdtMHlvMmlib3EwbicpOyBzdHJva2UtZGFzaGFycmF5OiAxMCwgMTE7IiBkYXRhLWNvcm5lci1yYWRpdXM9IjUiLz48L2c+PHBhdGggc3R5bGU9ImZpbGw6IG5vbmU7IHN0cm9rZS1vcGFjaXR5OiAwOyBzdHJva2U6IHdoaXRlOyBzdHJva2Utd2lkdGg6IDE1cHg7IiBjbGFzcz0iZGpzLWhpdCBkanMtaGl0LXN0cm9rZSIgZD0iTTE4MzAsNDAwTDE4MzAsMTIwTDIwNDAsMTIwTDIwNDAsLTEwMCIvPjxyZWN0IHN0eWxlPSJmaWxsOiBub25lOyIgY2xhc3M9ImRqcy1vdXRsaW5lIiBoZWlnaHQ9IjUxMCIgd2lkdGg9IjIyMCIgcng9IjQiIHk9Ii0xMDUiIHg9IjE4MjUiLz48L2c+PC9nPjxnIGNsYXNzPSJkanMtZ3JvdXAiPjxnIHRyYW5zZm9ybT0ibWF0cml4KDEgMCAwIDEgMTQ3IDQ2NSkiIHN0eWxlPSJkaXNwbGF5OiBibG9jazsiIGRhdGEtZWxlbWVudC1pZD0iU3RhcnRFdmVudF8xeTQ1eXV0X2xhYmVsIiBjbGFzcz0iZGpzLWVsZW1lbnQgZGpzLXNoYXBlIj48ZyBjbGFzcz0iZGpzLXZpc3VhbCI+PHRleHQgc3R5bGU9ImZvbnQtZmFtaWx5OiBBcmlhbCwgc2Fucy1zZXJpZjsgZm9udC1zaXplOiAxMXB4OyBmb250LXdlaWdodDogbm9ybWFsOyBmaWxsOiByZ2IoMzQsIDM2LCA0Mik7IiBjbGFzcz0iZGpzLWxhYmVsIj48dHNwYW4geT0iOS44OTk5OTk5OTk5OTk5OTkiIHg9IjAiPkxvZ2luPC90c3Bhbj48L3RleHQ+PC9nPjxyZWN0IHN0eWxlPSJmaWxsOiBub25lOyBzdHJva2Utb3BhY2l0eTogMDsgc3Ryb2tlOiB3aGl0ZTsgc3Ryb2tlLXdpZHRoOiAxNXB4OyIgaGVpZ2h0PSIxNCIgd2lkdGg9IjI3IiB5PSIwIiB4PSIwIiBjbGFzcz0iZGpzLWhpdCBkanMtaGl0LWFsbCIvPjxyZWN0IHN0eWxlPSJmaWxsOiBub25lOyIgY2xhc3M9ImRqcy1vdXRsaW5lIiBoZWlnaHQ9IjI0IiB3aWR0aD0iMzciIHJ4PSI0IiB5PSItNSIgeD0iLTUiLz48L2c+PC9nPjxnIGNsYXNzPSJkanMtZ3JvdXAiPjxnIHRyYW5zZm9ybT0ibWF0cml4KDEgMCAwIDEgMzk5IDQ1NSkiIHN0eWxlPSJkaXNwbGF5OiBibG9jazsiIGRhdGEtZWxlbWVudC1pZD0iRXZlbnRfMGQ1bXZtaF9sYWJlbCIgY2xhc3M9ImRqcy1lbGVtZW50IGRqcy1zaGFwZSI+PGcgY2xhc3M9ImRqcy12aXN1YWwiPjx0ZXh0IHN0eWxlPSJmb250LWZhbWlseTogQXJpYWwsIHNhbnMtc2VyaWY7IGZvbnQtc2l6ZTogMTFweDsgZm9udC13ZWlnaHQ6IG5vcm1hbDsgZmlsbDogcmdiKDM0LCAzNiwgNDIpOyIgY2xhc3M9ImRqcy1sYWJlbCI+PHRzcGFuIHk9IjkuODk5OTk5OTk5OTk5OTk5IiB4PSI3LjYyODkwNjI1Ij5PcGVuIHN0YXJ0dXAgPC90c3Bhbj48dHNwYW4geT0iMjMuMDk5OTk5OTk5OTk5OTk4IiB4PSIwLjI4NTE1NjI1Ij5wcm9maWxlIGVkaXQgcGFnZTwvdHNwYW4+PHRzcGFuIHk9IjM2LjMiIHg9IjAiPih3eXNpd3lnIGVkaXRvcik8L3RzcGFuPjwvdGV4dD48L2c+PHJlY3Qgc3R5bGU9ImZpbGw6IG5vbmU7IHN0cm9rZS1vcGFjaXR5OiAwOyBzdHJva2U6IHdoaXRlOyBzdHJva2Utd2lkdGg6IDE1cHg7IiBoZWlnaHQ9IjQwIiB3aWR0aD0iNzkiIHk9IjAiIHg9IjAiIGNsYXNzPSJkanMtaGl0IGRqcy1oaXQtYWxsIi8+PHJlY3Qgc3R5bGU9ImZpbGw6IG5vbmU7IiBjbGFzcz0iZGpzLW91dGxpbmUiIGhlaWdodD0iNTAiIHdpZHRoPSI4OSIgcng9IjQiIHk9Ii01IiB4PSItNSIvPjwvZz48L2c+PGcgY2xhc3M9ImRqcy1ncm91cCI+PGcgdHJhbnNmb3JtPSJtYXRyaXgoMSAwIDAgMSA3NjEgNDU1KSIgc3R5bGU9ImRpc3BsYXk6IGJsb2NrOyIgZGF0YS1lbGVtZW50LWlkPSJFdmVudF8wc2dnb2c5X2xhYmVsIiBjbGFzcz0iZGpzLWVsZW1lbnQgZGpzLXNoYXBlIj48ZyBjbGFzcz0iZGpzLXZpc3VhbCI+PHRleHQgc3R5bGU9ImZvbnQtZmFtaWx5OiBBcmlhbCwgc2Fucy1zZXJpZjsgZm9udC1zaXplOiAxMXB4OyBmb250LXdlaWdodDogbm9ybWFsOyBmaWxsOiByZ2IoMzQsIDM2LCA0Mik7IiBjbGFzcz0iZGpzLWxhYmVsIj48dHNwYW4geT0iOS44OTk5OTk5OTk5OTk5OTkiIHg9IjAiPlNhdmUgcHJvZmlsZTwvdHNwYW4+PC90ZXh0PjwvZz48cmVjdCBzdHlsZT0iZmlsbDogbm9uZTsgc3Ryb2tlLW9wYWNpdHk6IDA7IHN0cm9rZTogd2hpdGU7IHN0cm9rZS13aWR0aDogMTVweDsiIGhlaWdodD0iMTQiIHdpZHRoPSI1OSIgeT0iMCIgeD0iMCIgY2xhc3M9ImRqcy1oaXQgZGpzLWhpdC1hbGwiLz48cmVjdCBzdHlsZT0iZmlsbDogbm9uZTsiIGNsYXNzPSJkanMtb3V0bGluZSIgaGVpZ2h0PSIyNCIgd2lkdGg9IjY5IiByeD0iNCIgeT0iLTUiIHg9Ii01Ii8+PC9nPjwvZz48ZyBjbGFzcz0iZGpzLWdyb3VwIj48ZyBzdHlsZT0iZGlzcGxheTogYmxvY2s7IiBkYXRhLWVsZW1lbnQtaWQ9IkZsb3dfMDN6M3M2NyIgY2xhc3M9ImRqcy1lbGVtZW50IGRqcy1jb25uZWN0aW9uIj48ZyBjbGFzcz0iZGpzLXZpc3VhbCI+PHBhdGggZD0iTTE4MjAsLTEwMEwxODIwLDE3NUMxODIwLDE3Ny41LDE4MjIuNSwxODAsMTgyNSwxODBMMjAxNSwxODBDMjAxNy41LDE4MCwyMDIwLDE4Mi41LDIwMjAsMTg1TDIwMjAsNDAwIiBzdHlsZT0iZmlsbDogbm9uZTsgc3Ryb2tlLWxpbmVjYXA6IHJvdW5kOyBzdHJva2UtbGluZWpvaW46IHJvdW5kOyBzdHJva2U6IHJnYigzNCwgMzYsIDQyKTsgc3Ryb2tlLXdpZHRoOiAxLjVweDsgbWFya2VyLWVuZDogdXJsKCcjbWVzc2FnZWZsb3ctZW5kLXdoaXRlLWhzbF8yMjVfMTBfMTVfLTJvbWdyaXdtMDFuYXI3bTB5bzJpYm9xMG4nKTsgbWFya2VyLXN0YXJ0OiB1cmwoJyNtZXNzYWdlZmxvdy1zdGFydC13aGl0ZS1oc2xfMjI1XzEwXzE1Xy0yb21ncml3bTAxbmFyN20weW8yaWJvcTBuJyk7IHN0cm9rZS1kYXNoYXJyYXk6IDEwLCAxMTsiIGRhdGEtY29ybmVyLXJhZGl1cz0iNSIvPjwvZz48cGF0aCBzdHlsZT0iZmlsbDogbm9uZTsgc3Ryb2tlLW9wYWNpdHk6IDA7IHN0cm9rZTogd2hpdGU7IHN0cm9rZS13aWR0aDogMTVweDsiIGNsYXNzPSJkanMtaGl0IGRqcy1oaXQtc3Ryb2tlIiBkPSJNMTgyMCwtMTAwTDE4MjAsMTgwTDIwMjAsMTgwTDIwMjAsNDAwIi8+PHJlY3Qgc3R5bGU9ImZpbGw6IG5vbmU7IiBjbGFzcz0iZGpzLW91dGxpbmUiIGhlaWdodD0iNTEwIiB3aWR0aD0iMjEwIiByeD0iNCIgeT0iLTEwNSIgeD0iMTgxNSIvPjwvZz48L2c+PGcgY2xhc3M9ImRqcy1ncm91cCI+PGcgc3R5bGU9ImRpc3BsYXk6IGJsb2NrOyIgZGF0YS1lbGVtZW50LWlkPSJGbG93XzEwZ20xNTUiIGNsYXNzPSJkanMtZWxlbWVudCBkanMtY29ubmVjdGlvbiI+PGcgY2xhc3M9ImRqcy12aXN1YWwiPjxwYXRoIGQ9Ik0yMjYwLC0xMDBMMjI2MCw0MDAiIHN0eWxlPSJmaWxsOiBub25lOyBzdHJva2UtbGluZWNhcDogcm91bmQ7IHN0cm9rZS1saW5lam9pbjogcm91bmQ7IHN0cm9rZTogcmdiKDM0LCAzNiwgNDIpOyBzdHJva2Utd2lkdGg6IDEuNXB4OyBtYXJrZXItZW5kOiB1cmwoJyNtZXNzYWdlZmxvdy1lbmQtd2hpdGUtaHNsXzIyNV8xMF8xNV8tMm9tZ3Jpd20wMW5hcjdtMHlvMmlib3EwbicpOyBtYXJrZXItc3RhcnQ6IHVybCgnI21lc3NhZ2VmbG93LXN0YXJ0LXdoaXRlLWhzbF8yMjVfMTBfMTVfLTJvbWdyaXdtMDFuYXI3bTB5bzJpYm9xMG4nKTsgc3Ryb2tlLWRhc2hhcnJheTogMTAsIDExOyIgZGF0YS1jb3JuZXItcmFkaXVzPSI1Ii8+PC9nPjxwYXRoIHN0eWxlPSJmaWxsOiBub25lOyBzdHJva2Utb3BhY2l0eTogMDsgc3Ryb2tlOiB3aGl0ZTsgc3Ryb2tlLXdpZHRoOiAxNXB4OyIgY2xhc3M9ImRqcy1oaXQgZGpzLWhpdC1zdHJva2UiIGQ9Ik0yMjYwLC0xMDBMMjI2MCw0MDAiLz48cmVjdCBzdHlsZT0iZmlsbDogbm9uZTsiIGNsYXNzPSJkanMtb3V0bGluZSIgaGVpZ2h0PSI1MTAiIHdpZHRoPSIxMCIgcng9IjQiIHk9Ii0xMDUiIHg9IjIyNTUiLz48L2c+PC9nPjwvc3ZnPg==;" vertex="1" parent="1">
          <mxGeometry x="840" y="220" width="1200" height="548" as="geometry" />
        </mxCell>
        <mxCell id="d9xbv50uQdHHfrBe012P-4" value="" style="ellipse;whiteSpace=wrap;html=1;aspect=fixed;strokeColor=#FFFFFF;strokeWidth=2;" vertex="1" parent="1">
          <mxGeometry x="1643" y="350" width="14" height="14" as="geometry" />
        </mxCell>
        <mxCell id="d9xbv50uQdHHfrBe012P-5" value="" style="ellipse;whiteSpace=wrap;html=1;aspect=fixed;strokeColor=#FFFFFF;strokeWidth=2;" vertex="1" parent="1">
          <mxGeometry x="1533" y="650" width="14" height="14" as="geometry" />
        </mxCell>
        <mxCell id="d9xbv50uQdHHfrBe012P-6" value="" style="ellipse;whiteSpace=wrap;html=1;aspect=fixed;strokeColor=#FFFFFF;strokeWidth=2;" vertex="1" parent="1">
          <mxGeometry x="1073" y="645" width="14" height="14" as="geometry" />
        </mxCell>
        <mxCell id="d9xbv50uQdHHfrBe012P-7" value="" style="endArrow=classic;html=1;rounded=0;entryX=0.433;entryY=0.821;entryDx=0;entryDy=0;entryPerimeter=0;" edge="1" parent="1" target="d9xbv50uQdHHfrBe012P-1">
          <mxGeometry width="50" height="50" relative="1" as="geometry">
            <mxPoint x="1515" y="710" as="sourcePoint" />
            <mxPoint x="1400" y="580" as="targetPoint" />
          </mxGeometry>
        </mxCell>
        <mxCell id="d9xbv50uQdHHfrBe012P-8" value="" style="endArrow=classic;html=1;rounded=0;exitX=0.65;exitY=0.128;exitDx=0;exitDy=0;exitPerimeter=0;entryX=0.417;entryY=0.31;entryDx=0;entryDy=0;entryPerimeter=0;" edge="1" parent="1" source="d9xbv50uQdHHfrBe012P-1" target="d9xbv50uQdHHfrBe012P-1">
          <mxGeometry width="50" height="50" relative="1" as="geometry">
            <mxPoint x="1533" y="190" as="sourcePoint" />
            <mxPoint x="1620" y="300" as="targetPoint" />
          </mxGeometry>
        </mxCell>
        <mxCell id="d9xbv50uQdHHfrBe012P-9" value="" style="endArrow=classic;html=1;rounded=0;" edge="1" parent="1">
          <mxGeometry width="50" height="50" relative="1" as="geometry">
            <mxPoint x="1860" y="680" as="sourcePoint" />
            <mxPoint x="1320" y="680" as="targetPoint" />
            <Array as="points">
              <mxPoint x="1860" y="750" />
              <mxPoint x="1660" y="750" />
              <mxPoint x="1320" y="750" />
            </Array>
          </mxGeometry>
        </mxCell>
        <mxCell id="d9xbv50uQdHHfrBe012P-10" value="" style="endArrow=classic;html=1;rounded=0;" edge="1" parent="1">
          <mxGeometry width="50" height="50" relative="1" as="geometry">
            <mxPoint x="1970" y="335" as="sourcePoint" />
            <mxPoint x="1330" y="390" as="targetPoint" />
            <Array as="points">
              <mxPoint x="1970" y="260" />
              <mxPoint x="1750" y="260" />
              <mxPoint x="1330" y="260" />
            </Array>
          </mxGeometry>
        </mxCell>
        <mxCell id="d9xbv50uQdHHfrBe012P-17" value="" style="group;aspect=fixed;" vertex="1" connectable="0" parent="1">
          <mxGeometry x="1120" y="720" width="10" height="10" as="geometry" />
        </mxCell>
        <mxCell id="d9xbv50uQdHHfrBe012P-13" value="" style="verticalLabelPosition=bottom;verticalAlign=top;html=1;shape=mxgraph.basic.arc;startAngle=0.3;endAngle=0.1;" vertex="1" parent="d9xbv50uQdHHfrBe012P-17">
          <mxGeometry y="0.43478260869565216" width="10" height="9.565217391304348" as="geometry" />
        </mxCell>
        <mxCell id="d9xbv50uQdHHfrBe012P-14" value="" style="endArrow=none;html=1;rounded=0;" edge="1" parent="d9xbv50uQdHHfrBe012P-17">
          <mxGeometry width="50" height="50" relative="1" as="geometry">
            <mxPoint x="7.910685805422654" y="1.3478260869565217" as="sourcePoint" />
            <mxPoint x="6.698564593301435" as="targetPoint" />
          </mxGeometry>
        </mxCell>
        <mxCell id="d9xbv50uQdHHfrBe012P-15" value="" style="endArrow=none;html=1;rounded=0;" edge="1" parent="d9xbv50uQdHHfrBe012P-17">
          <mxGeometry width="50" height="50" relative="1" as="geometry">
            <mxPoint x="6.2200956937799035" y="1.3043478260869565" as="sourcePoint" />
            <mxPoint x="7.894736842105263" y="1.3478260869565217" as="targetPoint" />
          </mxGeometry>
        </mxCell>
        <mxCell id="d9xbv50uQdHHfrBe012P-22" value="" style="rounded=0;whiteSpace=wrap;html=1;" vertex="1" parent="1">
          <mxGeometry x="1080.5" y="623" width="13" height="15" as="geometry" />
        </mxCell>
        <mxCell id="d9xbv50uQdHHfrBe012P-24" value="" style="rounded=0;whiteSpace=wrap;html=1;" vertex="1" parent="1">
          <mxGeometry x="1080.5" y="665" width="13" height="15" as="geometry" />
        </mxCell>
        <mxCell id="d9xbv50uQdHHfrBe012P-25" value="" style="rounded=0;whiteSpace=wrap;html=1;fillColor=#FFFFFF;strokeColor=#FFFFFF;" vertex="1" parent="1">
          <mxGeometry x="1081.5" y="665" width="13" height="15" as="geometry" />
        </mxCell>
        <mxCell id="d9xbv50uQdHHfrBe012P-26" value="" style="rounded=0;whiteSpace=wrap;html=1;fillColor=#FFFFFF;strokeColor=#FFFFFF;" vertex="1" parent="1">
          <mxGeometry x="1066.5" y="665" width="13" height="15" as="geometry" />
        </mxCell>
        <mxCell id="d9xbv50uQdHHfrBe012P-27" value="" style="rounded=0;whiteSpace=wrap;html=1;fillColor=#FFFFFF;strokeColor=#FFFFFF;" vertex="1" parent="1">
          <mxGeometry x="1081.5" y="623" width="13" height="15" as="geometry" />
        </mxCell>
        <mxCell id="d9xbv50uQdHHfrBe012P-28" value="" style="rounded=0;whiteSpace=wrap;html=1;fillColor=#FFFFFF;strokeColor=#FFFFFF;" vertex="1" parent="1">
          <mxGeometry x="1066.5" y="623" width="13" height="15" as="geometry" />
        </mxCell>
        <mxCell id="d9xbv50uQdHHfrBe012P-29" value="" style="rounded=0;whiteSpace=wrap;html=1;fillColor=#FFFFFF;strokeColor=#FFFFFF;" vertex="1" parent="1">
          <mxGeometry x="1093.5" y="645" width="110.5" height="15" as="geometry" />
        </mxCell>
        <mxCell id="d9xbv50uQdHHfrBe012P-30" value="" style="endArrow=classic;html=1;rounded=0;exitX=0.283;exitY=0.748;exitDx=0;exitDy=0;exitPerimeter=0;entryX=1;entryY=0.25;entryDx=0;entryDy=0;" edge="1" parent="1" source="d9xbv50uQdHHfrBe012P-1" target="d9xbv50uQdHHfrBe012P-29">
          <mxGeometry width="50" height="50" relative="1" as="geometry">
            <mxPoint x="1160" y="720" as="sourcePoint" />
            <mxPoint x="1210" y="670" as="targetPoint" />
          </mxGeometry>
        </mxCell>
        <mxCell id="d9xbv50uQdHHfrBe012P-31" value="" style="endArrow=classic;html=1;rounded=0;exitX=0.283;exitY=0.858;exitDx=0;exitDy=0;exitPerimeter=0;" edge="1" parent="1" source="d9xbv50uQdHHfrBe012P-1">
          <mxGeometry width="50" height="50" relative="1" as="geometry">
            <mxPoint x="1180" y="650" as="sourcePoint" />
            <mxPoint x="1210" y="660" as="targetPoint" />
          </mxGeometry>
        </mxCell>
        <mxCell id="d9xbv50uQdHHfrBe012P-32" value="" style="endArrow=none;html=1;rounded=0;entryX=0.942;entryY=0.839;entryDx=0;entryDy=0;entryPerimeter=0;" edge="1" parent="1" target="d9xbv50uQdHHfrBe012P-1">
          <mxGeometry width="50" height="50" relative="1" as="geometry">
            <mxPoint x="1860" y="750" as="sourcePoint" />
            <mxPoint x="1920" y="680" as="targetPoint" />
          </mxGeometry>
        </mxCell>
      </root>
    </mxGraphModel>
  </diagram>
</mxfile>
